<?xml version="1.0" encoding="UTF-8" standalone="no"?>
<svg
   xmlns:dc="http://purl.org/dc/elements/1.1/"
   xmlns:cc="http://creativecommons.org/ns#"
   xmlns:rdf="http://www.w3.org/1999/02/22-rdf-syntax-ns#"
   xmlns:svg="http://www.w3.org/2000/svg"
   xmlns="http://www.w3.org/2000/svg"
   xmlns:sodipodi="http://sodipodi.sourceforge.net/DTD/sodipodi-0.dtd"
   xmlns:inkscape="http://www.inkscape.org/namespaces/inkscape"
   id="svg"
   inkscape:version="1.0.2 (e86c870879, 2021-01-15)"
   sodipodi:docname="configure.svg"
   version="1.1"
   viewBox="0 0 32 32"
   width="32"
   height="32">
  <metadata
     id="metadata15">
    <rdf:RDF>
      <cc:Work
         rdf:about="">
        <dc:format>image/svg+xml</dc:format>
        <dc:type
           rdf:resource="http://purl.org/dc/dcmitype/StillImage" />
        <dc:title />
      </cc:Work>
    </rdf:RDF>
  </metadata>
  <sodipodi:namedview
     id="namedview20"
     bordercolor="#666666"
     borderopacity="1"
     gridtolerance="10"
     guidetolerance="10"
     inkscape:current-layer="svg"
     inkscape:cx="-13.490266"
     inkscape:cy="11.782444"
     inkscape:pageopacity="0"
     inkscape:pageshadow="2"
     inkscape:window-height="992"
     inkscape:window-maximized="1"
     inkscape:window-width="1920"
     inkscape:window-x="0"
     inkscape:window-y="0"
     inkscape:zoom="15.170655"
     objecttolerance="10"
     pagecolor="#c8c8c8"
     showgrid="false"
     inkscape:document-rotation="0" />
  <defs
     id="defs3">
    <style
       id="current-color-scheme"
       type="text/css">.ColorScheme-Text { color:#dedede; } .ColorScheme-Highlight { color:#5294e2; } .ColorScheme-ButtonBackground { color:#dedede; }</style>
    <style
       type="text/css"
       id="style839" />
  </defs>
  <g
     id="22-22-configure">
    <path
       style="fill:none"
       inkscape:connector-curvature="0"
       d="M -22,10 V 32 H 0 V 10 Z"
       id="path9" />
    <g
       id="g859"
       transform="matrix(0.0175697,0,0,0.0175697,-27.0066,11.004795)">
      <path
         style="color:#000000;font-style:normal;font-variant:normal;font-weight:normal;font-stretch:normal;font-size:medium;line-height:normal;font-family:sans-serif;font-variant-ligatures:normal;font-variant-position:normal;font-variant-caps:normal;font-variant-numeric:normal;font-variant-alternates:normal;font-variant-east-asian:normal;font-feature-settings:normal;font-variation-settings:normal;text-indent:0;text-align:start;text-decoration:none;text-decoration-line:none;text-decoration-style:solid;text-decoration-color:#000000;letter-spacing:normal;word-spacing:normal;text-transform:none;writing-mode:lr-tb;direction:ltr;text-orientation:mixed;dominant-baseline:auto;baseline-shift:baseline;text-anchor:start;white-space:normal;shape-padding:0;shape-margin:0;inline-size:0;clip-rule:nonzero;display:inline;overflow:visible;visibility:visible;opacity:0.5;isolation:auto;mix-blend-mode:normal;color-interpolation:sRGB;color-interpolation-filters:linearRGB;solid-color:#000000;solid-opacity:1;vector-effect:none;fill:#46dcdc;fill-opacity:1;fill-rule:nonzero;stroke:none;stroke-width:1.11111;stroke-linecap:butt;stroke-linejoin:miter;stroke-miterlimit:4;stroke-dasharray:none;stroke-dashoffset:0;stroke-opacity:1;color-rendering:auto;image-rendering:auto;shape-rendering:auto;text-rendering:auto;enable-background:accumulate;stop-color:#000000;stop-opacity:1"
         d="m 1445.145,408.13816 c -48.6819,-10.84912 -89.2966,-41.17104 -114.194,-85.40207 -25.4536,-45.06559 -30.7391,-98.19848 -14.6045,-145.90681 6.8154,-19.89006 -1.3909,-41.86649 -19.4728,-52.57652 L 1097.1385,6.1642221 c -18.4991,-10.8491232 -41.8664,-7.09365733 -56.0537,9.0409359 -33.9383,38.667389 -80.25575,59.948362 -130.32863,59.948362 -51.04651,0 -97.08574,-21.141882 -129.7722,-59.531088 C 766.93575,-0.79034415 743.15113,-4.8239933 724.51289,6.1642221 L 524.77774,124.11367 c -18.08187,10.71003 -26.28826,32.68646 -19.47278,52.57651 16.1346,47.70834 10.84912,100.84123 -14.60459,145.90681 -25.03645,44.09195 -65.51202,74.41386 -114.19398,85.40208 -20.16824,4.59001 -34.63374,22.53279 -34.63374,43.39649 v 237.42889 c 0,20.72462 14.4655,38.80648 34.63374,43.3965 48.54288,10.84912 89.15753,41.17104 114.19398,85.40207 24.34098,43.95286 30.04372,96.2512 15.57822,143.54226 -5.98092,19.61187 2.22547,40.75372 19.89006,51.18562 l 202.23879,119.2013 c 18.22097,10.8491 41.58832,7.2327 55.63654,-8.6237 32.26919,-35.8856 78.5866,-56.6102 126.99038,-56.6102 48.40378,0 94.58214,20.5855 126.99034,56.6102 8.6237,9.7364 20.8637,14.7437 33.1038,14.7437 7.789,0 15.5782,-1.9473 22.5328,-6.3982 l 202.2388,-119.2013 c 17.6645,-10.2928 25.8709,-31.43464 20.0291,-51.04652 -14.6046,-48.54287 -9.0409,-99.58939 15.4392,-143.82042 25.0364,-44.09196 65.512,-74.41387 114.194,-85.40209 20.1682,-4.59001 34.6336,-22.53279 34.6336,-43.39649 V 451.53466 c -0.2781,-20.86371 -14.6045,-38.80648 -35.051,-43.3965 z m -35.051,250.92075 c -23.7846,9.04093 -46.3174,21.28098 -67.042,36.58102 -31.0174,23.08916 -56.4711,52.15925 -75.8047,86.37571 0,0.13909 -0.1391,0.27819 -0.1391,0.41728 -18.6382,33.521 -30.1829,69.82384 -34.3556,107.79578 -2.9209,26.01008 -2.2254,52.02015 2.0864,77.61296 l -150.9141,89.15754 c -48.2647,-40.1974 -109.4649,-62.73019 -173.02963,-62.73019 -63.56474,0 -124.90402,22.53279 -173.30779,62.86929 L 586.81247,968.11985 c 10.43186,-62.86929 -0.83454,-128.79858 -32.26918,-185.26965 0,-0.1391 -0.1391,-0.27819 -0.1391,-0.27819 -19.33369,-34.21647 -44.7874,-63.28656 -75.80477,-86.37572 -20.72461,-15.43913 -43.11831,-27.67917 -67.04202,-36.58101 V 481.57837 c 23.92371,-9.04093 46.4565,-21.42006 67.04202,-36.58101 31.01737,-23.08916 56.47108,-52.15925 75.80477,-86.37572 C 587.50793,300.0642 598.49615,232.74399 586.3952,168.6229 L 733.13655,81.829903 c 19.3337,16.830051 40.75376,30.878277 64.39929,41.588307 35.46828,16.27368 73.57931,24.48007 113.22033,24.48007 66.06839,0 127.82493,-23.36734 177.34153,-66.346559 l 147.0195,86.932079 c -11.9619,64.12111 -0.9737,131.71949 31.991,189.99876 19.3336,34.07737 44.7874,63.14746 75.8047,86.23662 20.7246,15.43913 43.1184,27.67917 67.042,36.58102 v 177.75871 z"
         id="path843" />
      <path
         style="color:#000000;font-style:normal;font-variant:normal;font-weight:normal;font-stretch:normal;font-size:medium;line-height:normal;font-family:sans-serif;font-variant-ligatures:normal;font-variant-position:normal;font-variant-caps:normal;font-variant-numeric:normal;font-variant-alternates:normal;font-variant-east-asian:normal;font-feature-settings:normal;font-variation-settings:normal;text-indent:0;text-align:start;text-decoration:none;text-decoration-line:none;text-decoration-style:solid;text-decoration-color:#000000;letter-spacing:normal;word-spacing:normal;text-transform:none;writing-mode:lr-tb;direction:ltr;text-orientation:mixed;dominant-baseline:auto;baseline-shift:baseline;text-anchor:start;white-space:normal;shape-padding:0;shape-margin:0;inline-size:0;clip-rule:nonzero;display:inline;overflow:visible;visibility:visible;opacity:0.5;isolation:auto;mix-blend-mode:normal;color-interpolation:sRGB;color-interpolation-filters:linearRGB;solid-color:#000000;solid-opacity:1;vector-effect:none;fill:#46dcdc;fill-opacity:1;fill-rule:nonzero;stroke:none;stroke-width:1.11111;stroke-linecap:butt;stroke-linejoin:miter;stroke-miterlimit:4;stroke-dasharray:none;stroke-dashoffset:0;stroke-opacity:1;color-rendering:auto;image-rendering:auto;shape-rendering:auto;text-rendering:auto;enable-background:accumulate;stop-color:#000000;stop-opacity:1"
         d="m 1182.6797,408.27724 c -25.1755,-44.50922 -33.6601,-96.1121 -24.4801,-144.93315 l -112.2467,-66.34657 c -37.6937,32.82555 -84.84566,50.62925 -135.33582,50.62925 -30.3219,0 -59.392,-6.25911 -86.37571,-18.63824 -17.94278,-8.20639 -34.35556,-18.91642 -49.09924,-31.71283 l -111.96852,66.20748 c 9.31912,48.96014 0.83455,100.42394 -24.48007,145.07225 -14.60458,25.87099 -34.07737,47.9865 -57.7229,65.65111 -15.71732,11.68367 -32.82556,21.00279 -51.18561,27.95735 v 135.89223 c 18.22096,6.81547 35.32919,16.13459 51.18561,27.95736 23.64553,17.66459 43.11832,39.78012 57.86199,65.92928 0,0.1391 0.13909,0.1391 0.13909,0.27819 23.92372,43.11831 32.54737,93.46937 24.61917,141.31678 l 115.16762,67.87658 c 36.99829,-30.73919 83.73297,-47.98652 132.27585,-47.98652 48.54287,0 95.27754,17.24733 131.99764,47.84743 l 115.1676,-68.01567 c -3.1991,-19.47278 -3.7554,-39.36284 -1.53,-59.1138 3.1991,-29.0701 11.9619,-56.74927 26.1493,-82.34208 0,-0.13908 0.139,-0.13908 0.139,-0.27817 14.7437,-26.14918 34.2165,-48.26469 57.8619,-65.9293 15.8565,-11.68366 32.9647,-21.14187 51.1857,-27.95735 V 501.88571 c -18.221,-6.81547 -35.3292,-16.13459 -51.1857,-27.95736 -23.9236,-17.5255 -43.3964,-39.64102 -58.1401,-65.65111 z"
         id="path845" />
      <path
         style="color:#000000;font-style:normal;font-variant:normal;font-weight:normal;font-stretch:normal;font-size:medium;line-height:normal;font-family:sans-serif;font-variant-ligatures:normal;font-variant-position:normal;font-variant-caps:normal;font-variant-numeric:normal;font-variant-alternates:normal;font-variant-east-asian:normal;font-feature-settings:normal;font-variation-settings:normal;text-indent:0;text-align:start;text-decoration:none;text-decoration-line:none;text-decoration-style:solid;text-decoration-color:#000000;letter-spacing:normal;word-spacing:normal;text-transform:none;writing-mode:lr-tb;direction:ltr;text-orientation:mixed;dominant-baseline:auto;baseline-shift:baseline;text-anchor:start;white-space:normal;shape-padding:0;shape-margin:0;inline-size:0;clip-rule:nonzero;display:inline;overflow:visible;visibility:visible;opacity:1;isolation:auto;mix-blend-mode:normal;color-interpolation:sRGB;color-interpolation-filters:linearRGB;solid-color:#000000;solid-opacity:1;vector-effect:none;fill:#46dcdc;fill-opacity:1;fill-rule:nonzero;stroke:none;stroke-width:1.11111;stroke-linecap:butt;stroke-linejoin:miter;stroke-miterlimit:4;stroke-dasharray:none;stroke-dashoffset:0;stroke-opacity:1;color-rendering:auto;image-rendering:auto;shape-rendering:auto;text-rendering:auto;enable-background:accumulate;stop-color:#000000;stop-opacity:1"
         d="m 910.75617,402.85269 c -90.40936,0 -163.98867,75.24841 -163.98867,167.74414 0,92.07846 73.57931,166.90959 163.98867,166.90959 90.40933,0 163.98873,-75.24841 163.98873,-167.74414 0,-91.93937 -73.5794,-166.90959 -163.98873,-166.90959 z"
         id="path847" />
    </g>
  </g>
  <g
     id="configure">
    <path
       style="fill:none"
       inkscape:connector-curvature="0"
       d="M 0,0 V 32 H 32 V 0 Z"
       id="path14-6" />
    <g
       id="g869"
       transform="matrix(0.02342626,0,0,0.02342626,-4.0087968,4.0057547)">
      <path
         style="color:#000000;font-style:normal;font-variant:normal;font-weight:normal;font-stretch:normal;font-size:medium;line-height:normal;font-family:sans-serif;font-variant-ligatures:normal;font-variant-position:normal;font-variant-caps:normal;font-variant-numeric:normal;font-variant-alternates:normal;font-variant-east-asian:normal;font-feature-settings:normal;font-variation-settings:normal;text-indent:0;text-align:start;text-decoration:none;text-decoration-line:none;text-decoration-style:solid;text-decoration-color:#000000;letter-spacing:normal;word-spacing:normal;text-transform:none;writing-mode:lr-tb;direction:ltr;text-orientation:mixed;dominant-baseline:auto;baseline-shift:baseline;text-anchor:start;white-space:normal;shape-padding:0;shape-margin:0;inline-size:0;clip-rule:nonzero;display:inline;overflow:visible;visibility:visible;isolation:auto;mix-blend-mode:normal;color-interpolation:sRGB;color-interpolation-filters:linearRGB;solid-color:#000000;solid-opacity:1;vector-effect:none;fill:#46dcdc;fill-opacity:1;fill-rule:nonzero;stroke-width:1;stroke-linecap:butt;stroke-linejoin:miter;stroke-miterlimit:4;stroke-dasharray:none;stroke-dashoffset:0;stroke-opacity:1;color-rendering:auto;image-rendering:auto;shape-rendering:auto;text-rendering:auto;enable-background:accumulate;stop-color:#000000;stop-opacity:1;stroke:none;opacity:0.5"
         d="m 1334.818,367.32442 c -43.8137,-9.76421 -80.367,-37.05394 -102.7746,-76.86188 -22.9083,-40.55904 -27.6652,-88.37865 -13.1441,-131.31615 6.1339,-17.90106 -1.2518,-37.67985 -17.5255,-47.31888 L 1021.6121,5.547801 c -16.6492,-9.764213 -37.67984,-6.384293 -50.44842,8.136844 -30.54447,34.800658 -72.23015,53.953538 -117.29575,53.953538 -45.94187,0 -87.37719,-19.027698 -116.79501,-53.577991 C 724.42952,-0.71131 703.02336,-4.341595 686.24894,5.547801 L 506.48727,111.70233 c -16.27369,9.63903 -23.65944,29.41782 -17.52551,47.31887 14.52114,42.93751 9.76421,90.75712 -13.14413,131.31615 -22.53281,39.68277 -58.96083,66.97249 -102.77461,76.86189 -18.15142,4.13101 -31.17037,20.27952 -31.17037,39.05685 v 213.68605 c 0,18.65216 13.01895,34.92584 31.17037,39.05686 43.6886,9.76421 80.2418,37.05394 102.77461,76.86188 21.90688,39.55758 27.03935,86.6261 14.0204,129.18806 -5.38283,17.65069 2.00292,36.67839 17.90106,46.06705 l 182.01495,107.28121 c 16.39887,9.7642 37.42949,6.5094 50.07289,-7.7613 29.04228,-32.29705 70.72796,-50.94921 114.29137,-50.94921 43.56341,0 85.12391,18.52697 114.29137,50.94921 7.7613,8.7627 18.77733,13.2693 29.79337,13.2693 7.01016,0 14.02036,-1.7526 20.27956,-5.7584 l 182.0149,-107.28117 c 15.8981,-9.26349 23.2839,-28.29118 18.0262,-45.94188 -13.1441,-43.68859 -8.1368,-89.63047 13.8953,-129.43841 22.5328,-39.68277 58.9608,-66.97249 102.7746,-76.86189 18.1514,-4.13101 31.1703,-20.27952 31.1703,-39.05685 V 406.38128 c -0.2503,-18.77734 -13.1441,-34.92584 -31.5459,-39.05686 z m -31.5459,225.82873 c -21.4062,8.13684 -41.6857,19.15288 -60.3378,32.92292 -27.9157,20.78025 -50.824,46.94334 -68.2243,77.73816 0,0.12518 -0.1252,0.25037 -0.1252,0.37555 -16.7744,30.16891 -27.1646,62.84147 -30.92,97.01622 -2.6288,23.40908 -2.0029,46.81815 1.8777,69.85168 l -135.8227,80.24181 C 966.28157,915.12182 911.20139,894.8423 853.99312,894.8423 c -57.20828,0 -112.41364,20.27952 -155.97705,56.58237 L 562.31854,871.30805 c 9.38867,-56.58237 -0.75109,-115.91874 -29.04227,-166.74272 0,-0.12519 -0.12519,-0.25037 -0.12519,-0.25037 -17.40033,-30.79483 -40.30867,-56.95791 -68.22431,-77.73816 -18.65215,-13.89522 -38.80649,-24.91126 -60.33783,-32.92292 V 433.42063 c 21.53134,-8.13684 41.81086,-19.27806 60.33783,-32.92292 27.91564,-20.78025 50.82398,-46.94333 68.22431,-77.73816 29.79337,-52.70171 39.68277,-113.28991 28.79191,-170.99891 L 694.01024,73.646929 c 17.40033,15.147049 36.67839,27.790451 57.95937,37.429481 31.92146,14.64632 66.22139,22.03207 101.89832,22.03207 59.46156,0 115.04247,-21.03061 159.60737,-59.711915 l 132.3176,78.238885 c -10.7657,57.70901 -0.8763,118.54757 28.7919,170.99892 17.4003,30.66964 40.3087,56.83273 68.2243,77.61298 18.6521,13.89522 38.8065,24.91126 60.3378,32.92292 v 159.98288 z"
         id="path863" />
      <path
         style="color:#000000;font-style:normal;font-variant:normal;font-weight:normal;font-stretch:normal;font-size:medium;line-height:normal;font-family:sans-serif;font-variant-ligatures:normal;font-variant-position:normal;font-variant-caps:normal;font-variant-numeric:normal;font-variant-alternates:normal;font-variant-east-asian:normal;font-feature-settings:normal;font-variation-settings:normal;text-indent:0;text-align:start;text-decoration:none;text-decoration-line:none;text-decoration-style:solid;text-decoration-color:#000000;letter-spacing:normal;word-spacing:normal;text-transform:none;writing-mode:lr-tb;direction:ltr;text-orientation:mixed;dominant-baseline:auto;baseline-shift:baseline;text-anchor:start;white-space:normal;shape-padding:0;shape-margin:0;inline-size:0;clip-rule:nonzero;display:inline;overflow:visible;visibility:visible;isolation:auto;mix-blend-mode:normal;color-interpolation:sRGB;color-interpolation-filters:linearRGB;solid-color:#000000;solid-opacity:1;vector-effect:none;fill:#46dcdc;fill-opacity:1;fill-rule:nonzero;stroke-width:1;stroke-linecap:butt;stroke-linejoin:miter;stroke-miterlimit:4;stroke-dasharray:none;stroke-dashoffset:0;stroke-opacity:1;color-rendering:auto;image-rendering:auto;shape-rendering:auto;text-rendering:auto;enable-background:accumulate;stop-color:#000000;stop-opacity:1;stroke:none;opacity:0.5"
         d="m 1098.5992,367.4496 c -22.658,-40.05831 -30.2941,-86.50091 -22.0321,-130.43987 L 975.54505,177.29781 c -33.92438,29.543 -76.36115,45.56633 -121.8023,45.56633 -27.28972,0 -53.45281,-5.6332 -77.73816,-16.77442 -16.1485,-7.38575 -30.92001,-17.02478 -44.18932,-28.54155 l -100.77169,59.58674 c 8.38721,44.06414 0.75109,90.38157 -22.03207,130.56506 -13.14413,23.28389 -30.66964,43.18786 -51.95062,59.08601 -14.14559,10.5153 -29.54301,18.90251 -46.06706,25.16162 v 122.30303 c 16.39887,6.13393 31.79628,14.52114 46.06706,25.16163 21.28098,15.89814 38.80649,35.80212 52.0758,59.33637 0,0.12519 0.12518,0.12519 0.12518,0.25037 21.53135,38.80649 29.29264,84.12245 22.15726,127.18513 l 103.65088,61.08893 c 33.29847,-27.66527 75.35969,-43.18787 119.04829,-43.18787 43.68859,0 85.74982,15.5226 118.79793,43.06269 l 103.65087,-61.21411 c -2.8792,-17.52551 -3.3799,-35.42657 -1.377,-53.20244 2.8792,-26.16309 10.7657,-51.07435 23.5343,-74.10788 0,-0.12518 0.1251,-0.12518 0.1251,-0.25036 13.2694,-23.53426 30.7949,-43.43823 52.0758,-59.33638 14.2708,-10.5153 29.6682,-19.02769 46.0671,-25.16162 V 451.69724 c -16.3989,-6.13393 -31.7963,-14.52114 -46.0671,-25.16163 -21.5313,-15.77296 -39.0568,-35.67693 -52.3261,-59.08601 z"
         id="path865" />
      <path
         style="color:#000000;font-style:normal;font-variant:normal;font-weight:normal;font-stretch:normal;font-size:medium;line-height:normal;font-family:sans-serif;font-variant-ligatures:normal;font-variant-position:normal;font-variant-caps:normal;font-variant-numeric:normal;font-variant-alternates:normal;font-variant-east-asian:normal;font-feature-settings:normal;font-variation-settings:normal;text-indent:0;text-align:start;text-decoration:none;text-decoration-line:none;text-decoration-style:solid;text-decoration-color:#000000;letter-spacing:normal;word-spacing:normal;text-transform:none;writing-mode:lr-tb;direction:ltr;text-orientation:mixed;dominant-baseline:auto;baseline-shift:baseline;text-anchor:start;white-space:normal;shape-padding:0;shape-margin:0;inline-size:0;clip-rule:nonzero;display:inline;overflow:visible;visibility:visible;isolation:auto;mix-blend-mode:normal;color-interpolation:sRGB;color-interpolation-filters:linearRGB;solid-color:#000000;solid-opacity:1;vector-effect:none;fill:#46dcdc;fill-opacity:1;fill-rule:nonzero;stroke-width:1;stroke-linecap:butt;stroke-linejoin:miter;stroke-miterlimit:4;stroke-dasharray:none;stroke-dashoffset:0;stroke-opacity:1;color-rendering:auto;image-rendering:auto;shape-rendering:auto;text-rendering:auto;enable-background:accumulate;stop-color:#000000;stop-opacity:1;stroke:none;opacity:1"
         d="m 853.86793,362.5675 c -81.36844,0 -147.58984,67.72358 -147.58984,150.96976 0,82.87063 66.2214,150.21866 147.58984,150.21866 81.36845,0 147.58987,-67.72358 147.58987,-150.96976 0,-82.74545 -66.22142,-150.21866 -147.58987,-150.21866 z"
         id="path867" />
    </g>
  </g>
  <g
     id="16-16-configure"
     transform="translate(-0.500001,-0.497843)">
    <path
       style="fill:none;stroke-width:0.727273"
       inkscape:connector-curvature="0"
       d="m -37.499999,16.497843 v 16 h 16 v -16 z"
       id="path9-7" />
    <g
       id="g884"
       transform="matrix(0.01561751,0,0,0.01561751,-42.839199,16.501678)">
      <path
         style="color:#000000;font-style:normal;font-variant:normal;font-weight:normal;font-stretch:normal;font-size:medium;line-height:normal;font-family:sans-serif;font-variant-ligatures:normal;font-variant-position:normal;font-variant-caps:normal;font-variant-numeric:normal;font-variant-alternates:normal;font-variant-east-asian:normal;font-feature-settings:normal;font-variation-settings:normal;text-indent:0;text-align:start;text-decoration:none;text-decoration-line:none;text-decoration-style:solid;text-decoration-color:#000000;letter-spacing:normal;word-spacing:normal;text-transform:none;writing-mode:lr-tb;direction:ltr;text-orientation:mixed;dominant-baseline:auto;baseline-shift:baseline;text-anchor:start;white-space:normal;shape-padding:0;shape-margin:0;inline-size:0;clip-rule:nonzero;display:inline;overflow:visible;visibility:visible;opacity:0.5;isolation:auto;mix-blend-mode:normal;color-interpolation:sRGB;color-interpolation-filters:linearRGB;solid-color:#000000;solid-opacity:1;vector-effect:none;fill:#46dcdc;fill-opacity:1;fill-rule:nonzero;stroke:none;stroke-width:1;stroke-linecap:butt;stroke-linejoin:miter;stroke-miterlimit:4;stroke-dasharray:none;stroke-dashoffset:0;stroke-opacity:1;color-rendering:auto;image-rendering:auto;shape-rendering:auto;text-rendering:auto;enable-background:accumulate;stop-color:#000000;stop-opacity:1"
         d="m 1334.818,367.32442 c -43.8137,-9.76421 -80.367,-37.05394 -102.7746,-76.86188 -22.9083,-40.55904 -27.6652,-88.37865 -13.1441,-131.31615 6.1339,-17.90106 -1.2518,-37.67985 -17.5255,-47.31888 L 1021.6121,5.547801 c -16.6492,-9.764213 -37.67984,-6.384293 -50.44842,8.136844 -30.54447,34.800658 -72.23015,53.953538 -117.29575,53.953538 -45.94187,0 -87.37719,-19.027698 -116.79501,-53.577991 C 724.42952,-0.71131 703.02336,-4.341595 686.24894,5.547801 L 506.48727,111.70233 c -16.27369,9.63903 -23.65944,29.41782 -17.52551,47.31887 14.52114,42.93751 9.76421,90.75712 -13.14413,131.31615 -22.53281,39.68277 -58.96083,66.97249 -102.77461,76.86189 -18.15142,4.13101 -31.17037,20.27952 -31.17037,39.05685 v 213.68605 c 0,18.65216 13.01895,34.92584 31.17037,39.05686 43.6886,9.76421 80.2418,37.05394 102.77461,76.86188 21.90688,39.55758 27.03935,86.6261 14.0204,129.18806 -5.38283,17.65069 2.00292,36.67839 17.90106,46.06705 l 182.01495,107.28121 c 16.39887,9.7642 37.42949,6.5094 50.07289,-7.7613 29.04228,-32.29705 70.72796,-50.94921 114.29137,-50.94921 43.56341,0 85.12391,18.52697 114.29137,50.94921 7.7613,8.7627 18.77733,13.2693 29.79337,13.2693 7.01016,0 14.02036,-1.7526 20.27956,-5.7584 l 182.0149,-107.28117 c 15.8981,-9.26349 23.2839,-28.29118 18.0262,-45.94188 -13.1441,-43.68859 -8.1368,-89.63047 13.8953,-129.43841 22.5328,-39.68277 58.9608,-66.97249 102.7746,-76.86189 18.1514,-4.13101 31.1703,-20.27952 31.1703,-39.05685 V 406.38128 c -0.2503,-18.77734 -13.1441,-34.92584 -31.5459,-39.05686 z m -31.5459,225.82873 c -21.4062,8.13684 -41.6857,19.15288 -60.3378,32.92292 -27.9157,20.78025 -50.824,46.94334 -68.2243,77.73816 0,0.12518 -0.1252,0.25037 -0.1252,0.37555 -16.7744,30.16891 -27.1646,62.84147 -30.92,97.01622 -2.6288,23.40908 -2.0029,46.81815 1.8777,69.85168 l -135.8227,80.24181 C 966.28157,915.12182 911.20139,894.8423 853.99312,894.8423 c -57.20828,0 -112.41364,20.27952 -155.97705,56.58237 L 562.31854,871.30805 c 9.38867,-56.58237 -0.75109,-115.91874 -29.04227,-166.74272 0,-0.12519 -0.12519,-0.25037 -0.12519,-0.25037 -17.40033,-30.79483 -40.30867,-56.95791 -68.22431,-77.73816 -18.65215,-13.89522 -38.80649,-24.91126 -60.33783,-32.92292 V 433.42063 c 21.53134,-8.13684 41.81086,-19.27806 60.33783,-32.92292 27.91564,-20.78025 50.82398,-46.94333 68.22431,-77.73816 29.79337,-52.70171 39.68277,-113.28991 28.79191,-170.99891 L 694.01024,73.646929 c 17.40033,15.147049 36.67839,27.790451 57.95937,37.429481 31.92146,14.64632 66.22139,22.03207 101.89832,22.03207 59.46156,0 115.04247,-21.03061 159.60737,-59.711915 l 132.3176,78.238885 c -10.7657,57.70901 -0.8763,118.54757 28.7919,170.99892 17.4003,30.66964 40.3087,56.83273 68.2243,77.61298 18.6521,13.89522 38.8065,24.91126 60.3378,32.92292 v 159.98288 z"
         id="path878" />
      <path
         style="color:#000000;font-style:normal;font-variant:normal;font-weight:normal;font-stretch:normal;font-size:medium;line-height:normal;font-family:sans-serif;font-variant-ligatures:normal;font-variant-position:normal;font-variant-caps:normal;font-variant-numeric:normal;font-variant-alternates:normal;font-variant-east-asian:normal;font-feature-settings:normal;font-variation-settings:normal;text-indent:0;text-align:start;text-decoration:none;text-decoration-line:none;text-decoration-style:solid;text-decoration-color:#000000;letter-spacing:normal;word-spacing:normal;text-transform:none;writing-mode:lr-tb;direction:ltr;text-orientation:mixed;dominant-baseline:auto;baseline-shift:baseline;text-anchor:start;white-space:normal;shape-padding:0;shape-margin:0;inline-size:0;clip-rule:nonzero;display:inline;overflow:visible;visibility:visible;opacity:0.5;isolation:auto;mix-blend-mode:normal;color-interpolation:sRGB;color-interpolation-filters:linearRGB;solid-color:#000000;solid-opacity:1;vector-effect:none;fill:#46dcdc;fill-opacity:1;fill-rule:nonzero;stroke:none;stroke-width:1;stroke-linecap:butt;stroke-linejoin:miter;stroke-miterlimit:4;stroke-dasharray:none;stroke-dashoffset:0;stroke-opacity:1;color-rendering:auto;image-rendering:auto;shape-rendering:auto;text-rendering:auto;enable-background:accumulate;stop-color:#000000;stop-opacity:1"
         d="m 1098.5992,367.4496 c -22.658,-40.05831 -30.2941,-86.50091 -22.0321,-130.43987 L 975.54505,177.29781 c -33.92438,29.543 -76.36115,45.56633 -121.8023,45.56633 -27.28972,0 -53.45281,-5.6332 -77.73816,-16.77442 -16.1485,-7.38575 -30.92001,-17.02478 -44.18932,-28.54155 l -100.77169,59.58674 c 8.38721,44.06414 0.75109,90.38157 -22.03207,130.56506 -13.14413,23.28389 -30.66964,43.18786 -51.95062,59.08601 -14.14559,10.5153 -29.54301,18.90251 -46.06706,25.16162 v 122.30303 c 16.39887,6.13393 31.79628,14.52114 46.06706,25.16163 21.28098,15.89814 38.80649,35.80212 52.0758,59.33637 0,0.12519 0.12518,0.12519 0.12518,0.25037 21.53135,38.80649 29.29264,84.12245 22.15726,127.18513 l 103.65088,61.08893 c 33.29847,-27.66527 75.35969,-43.18787 119.04829,-43.18787 43.68859,0 85.74982,15.5226 118.79793,43.06269 l 103.65087,-61.21411 c -2.8792,-17.52551 -3.3799,-35.42657 -1.377,-53.20244 2.8792,-26.16309 10.7657,-51.07435 23.5343,-74.10788 0,-0.12518 0.1251,-0.12518 0.1251,-0.25036 13.2694,-23.53426 30.7949,-43.43823 52.0758,-59.33638 14.2708,-10.5153 29.6682,-19.02769 46.0671,-25.16162 V 451.69724 c -16.3989,-6.13393 -31.7963,-14.52114 -46.0671,-25.16163 -21.5313,-15.77296 -39.0568,-35.67693 -52.3261,-59.08601 z"
         id="path880" />
      <path
         style="color:#000000;font-style:normal;font-variant:normal;font-weight:normal;font-stretch:normal;font-size:medium;line-height:normal;font-family:sans-serif;font-variant-ligatures:normal;font-variant-position:normal;font-variant-caps:normal;font-variant-numeric:normal;font-variant-alternates:normal;font-variant-east-asian:normal;font-feature-settings:normal;font-variation-settings:normal;text-indent:0;text-align:start;text-decoration:none;text-decoration-line:none;text-decoration-style:solid;text-decoration-color:#000000;letter-spacing:normal;word-spacing:normal;text-transform:none;writing-mode:lr-tb;direction:ltr;text-orientation:mixed;dominant-baseline:auto;baseline-shift:baseline;text-anchor:start;white-space:normal;shape-padding:0;shape-margin:0;inline-size:0;clip-rule:nonzero;display:inline;overflow:visible;visibility:visible;opacity:1;isolation:auto;mix-blend-mode:normal;color-interpolation:sRGB;color-interpolation-filters:linearRGB;solid-color:#000000;solid-opacity:1;vector-effect:none;fill:#46dcdc;fill-opacity:1;fill-rule:nonzero;stroke:none;stroke-width:1;stroke-linecap:butt;stroke-linejoin:miter;stroke-miterlimit:4;stroke-dasharray:none;stroke-dashoffset:0;stroke-opacity:1;color-rendering:auto;image-rendering:auto;shape-rendering:auto;text-rendering:auto;enable-background:accumulate;stop-color:#000000;stop-opacity:1"
         d="m 853.86793,362.5675 c -81.36844,0 -147.58984,67.72358 -147.58984,150.96976 0,82.87063 66.2214,150.21866 147.58984,150.21866 81.36845,0 147.58987,-67.72358 147.58987,-150.96976 0,-82.74545 -66.22142,-150.21866 -147.58987,-150.21866 z"
         id="path882" />
    </g>
  </g>
</svg>
