<?xml version="1.0" encoding="UTF-8" standalone="no"?>
<svg
   xmlns:dc="http://purl.org/dc/elements/1.1/"
   xmlns:cc="http://creativecommons.org/ns#"
   xmlns:rdf="http://www.w3.org/1999/02/22-rdf-syntax-ns#"
   xmlns:svg="http://www.w3.org/2000/svg"
   xmlns="http://www.w3.org/2000/svg"
   xmlns:sodipodi="http://sodipodi.sourceforge.net/DTD/sodipodi-0.dtd"
   xmlns:inkscape="http://www.inkscape.org/namespaces/inkscape"
   id="svg19"
   viewBox="0 0 32 32"
   version="1.1"
   sodipodi:docname="kate.svg"
   inkscape:version="1.0.1 (3bc2e813f5, 2020-09-07, custom)">
  <sodipodi:namedview
     pagecolor="#c8c8c8"
     bordercolor="#666666"
     borderopacity="1"
     objecttolerance="10"
     gridtolerance="10"
     guidetolerance="10"
     inkscape:pageopacity="0"
     inkscape:pageshadow="2"
     inkscape:window-width="1920"
     inkscape:window-height="985"
     id="namedview13"
     showgrid="true"
     inkscape:zoom="8.5626212"
     inkscape:cx="37.141692"
     inkscape:cy="8.9947888"
     inkscape:window-x="0"
     inkscape:window-y="0"
     inkscape:window-maximized="1"
     inkscape:current-layer="svg19"
     inkscape:document-rotation="0">
    <inkscape:grid
       type="xygrid"
       id="grid838" />
  </sodipodi:namedview>
  <metadata
     id="metadata21">
    <rdf:RDF>
      <cc:Work
         rdf:about="">
        <dc:format>image/svg+xml</dc:format>
        <dc:type
           rdf:resource="http://purl.org/dc/dcmitype/StillImage" />
        <dc:title />
      </cc:Work>
    </rdf:RDF>
  </metadata>
  <defs
     id="defs5">
    <style
       type="text/css"
       id="current-color-scheme"> .ColorScheme-Text { color:#363636; } </style>
  </defs>
  <path
     id="rect874"
     style="fill:#46dcdc;fill-opacity:1;stroke-width:0.5;stroke-linecap:round;stroke-linejoin:round;paint-order:stroke fill markers"
     d="m 59.212891,-15.689454 c -1.147067,0.03867 -2.441323,0.400301 -3.699219,1.328125 -1.30593,0.96327 -1.880226,1.226645 -2.513672,1.546875 0.56439,0.04385 3.9416,-0.445546 4.539062,1.574219 0.02782,-0.0087 0.146246,-0.04474 0.185547,-0.05664 -2.429067,0.688376 -3.784705,2.272487 -2.757812,4.470703 1.030561,2.20622 2.811177,2.258398 5.009765,3.75586 1.716409,1.16905 2.136637,1.764404 3.244141,3.384765 -0.230313,-2.238946 -1.293639,-5.125077 -1.791015,-6.396484 1.92025,1.169495 2.893036,1.431249 5.570312,1.716797 -3.474215,-2.51818 -4.13246,-3.01032 -6.121094,-4.736328 -1.33414,0.06848 -1.18789,0.05561 -1.974609,0.101562 1.035713,1.488214 1.444402,3.675017 -0.449219,4.076172 -1.772478,0.375473 -3.482029,-1.182913 -2.996094,-2.851563 0.527648,-1.811913 2.805896,-1.462981 5.195313,-1.777343 2.38933,-0.314307 4.571675,-2.700683 5.884765,-4.466797 -1.874921,0.651384 -4.279573,1.394738 -6.929687,2.167968 -0.536748,-1.067138 -1.224921,-3.083747 2.416016,-3.22461 -0.666913,-0.368465 -1.665434,-0.651956 -2.8125,-0.613281 z" />
  <path
     style="color:#363636;font-style:normal;font-variant:normal;font-weight:normal;font-stretch:normal;font-size:medium;line-height:normal;font-family:sans-serif;font-variant-ligatures:normal;font-variant-position:normal;font-variant-caps:normal;font-variant-numeric:normal;font-variant-alternates:normal;font-variant-east-asian:normal;font-feature-settings:normal;font-variation-settings:normal;text-indent:0;text-align:start;text-decoration:none;text-decoration-line:none;text-decoration-style:solid;text-decoration-color:#000000;letter-spacing:normal;word-spacing:normal;text-transform:none;writing-mode:lr-tb;direction:ltr;text-orientation:mixed;dominant-baseline:auto;baseline-shift:baseline;text-anchor:start;white-space:normal;shape-padding:0;shape-margin:0;inline-size:0;clip-rule:nonzero;display:inline;overflow:visible;visibility:visible;isolation:auto;mix-blend-mode:normal;color-interpolation:sRGB;color-interpolation-filters:linearRGB;solid-color:#000000;solid-opacity:1;vector-effect:none;fill:#46dcdc;fill-opacity:1;fill-rule:nonzero;stroke:none;stroke-width:1.52279;stroke-linecap:butt;stroke-linejoin:miter;stroke-miterlimit:4;stroke-dasharray:none;stroke-dashoffset:0;stroke-opacity:1;color-rendering:auto;image-rendering:auto;shape-rendering:auto;text-rendering:auto;enable-background:accumulate;stop-color:#000000"
     d="m 15.053893,-29.286819 c -2.029898,0.06524 -4.320681,0.67691 -6.5467073,2.242313 -2.3110304,1.625208 -3.3255158,2.06917 -4.4464884,2.609456 0.9987675,0.07398 6.9746657,-0.753985 8.0319627,2.653717 0.04925,-0.0147 0.258474,-0.07281 0.328023,-0.09288 -4.2985814,1.161412 -6.6964704,3.831963 -4.8792369,7.540744 1.8237255,3.722286 4.9749049,3.811258 8.8656199,6.337742 3.037431,1.972395 3.780521,2.975848 5.740407,5.709685 -0.407572,-3.777499 -2.290629,-8.646372 -3.170808,-10.791461 3.398154,1.973145 5.120957,2.415157 9.858778,2.896928 -6.148118,-4.248618 -7.314683,-5.079827 -10.833853,-7.991908 -2.36095,0.11554 -2.102075,0.09496 -3.494287,0.172483 1.832843,2.51088 2.558314,6.200608 -0.792719,6.877427 -3.136652,0.633489 -6.1629529,-1.996701 -5.3030202,-4.812009 0.933747,-3.057019 4.9653222,-2.468271 9.1937382,-2.998654 4.228259,-0.530293 8.091,-4.556645 10.414704,-7.536393 -3.317943,1.098989 -7.574486,2.353034 -12.264241,3.657612 -0.949851,-1.800453 -2.165287,-5.202257 4.277872,-5.439917 -1.180197,-0.621666 -2.949643,-1.100166 -4.979542,-1.034915 z"
     id="path890" />
  <g
     id="kate">
    <rect
       id="rect12"
       fill="none"
       height="32"
       width="32"
       y="-1e-06"
       x="-2.8954e-08"
       style="color:#363636" />
    <g
       id="g846"
       transform="translate(30.5)">
      <path
         style="fill:#46dcdc;fill-opacity:1;stroke:none;stroke-width:1px;stroke-linecap:butt;stroke-linejoin:miter;stroke-opacity:1"
         d="m -27,8 4,-2 6,-3 6.033637,1.0349149 L -15,5 -21,8 Z"
         id="path837" />
      <path
         style="fill:#46dcdc;fill-opacity:1;stroke:none;stroke-width:1px;stroke-linecap:butt;stroke-linejoin:miter;stroke-opacity:1"
         d="m -20,9 1,1 0.09266,0.505516 L -22,12 l -2,3 1,4 1,1 h 1 l -1,-1 v -4 l 10,-2 5,-3 4,-4 -10,3 z"
         id="path839"
         sodipodi:nodetypes="ccccccccccccccc" />
      <path
         style="fill:#46dcdc;fill-opacity:1;stroke:none;stroke-width:1px;stroke-linecap:butt;stroke-linejoin:miter;stroke-opacity:1"
         d="m -21,21 8,4 4,5 -1,-5 -2,-6 4,2 6,1 -5,-3 -6,-5 -3,1 1,3 v 2 l -3,1 z"
         id="path841" />
    </g>
  </g>
  <g
     id="22-22-kate">
    <path
       id="path7"
       fill="none"
       d="M 49,5 H 71 V 27 H 49 Z"
       style="color:#363636" />
    <g
       id="g854"
       transform="matrix(0.66666667,0,0,0.66666667,69.666667,4.9999999)">
      <path
         style="fill:#46dcdc;fill-opacity:1;stroke:none;stroke-width:1px;stroke-linecap:butt;stroke-linejoin:miter;stroke-opacity:1"
         d="m -27,8 4,-2 6,-3 6.033637,1.0349149 L -15,5 -21,8 Z"
         id="path848" />
      <path
         style="fill:#46dcdc;fill-opacity:1;stroke:none;stroke-width:1px;stroke-linecap:butt;stroke-linejoin:miter;stroke-opacity:1"
         d="m -20,9 1,1 0.09266,0.505516 L -22,12 l -2,3 1,4 1,1 h 1 l -1,-1 v -4 l 10,-2 5,-3 4,-4 -10,3 z"
         id="path850"
         sodipodi:nodetypes="ccccccccccccccc" />
      <path
         style="fill:#46dcdc;fill-opacity:1;stroke:none;stroke-width:1px;stroke-linecap:butt;stroke-linejoin:miter;stroke-opacity:1"
         d="m -21,21 8,4 4,5 -1,-5 -2,-6 4,2 6,1 -5,-3 -6,-5 -3,1 1,3 v 2 l -3,1 z"
         id="path852" />
    </g>
  </g>
</svg>
