<?xml version="1.0" encoding="UTF-8" standalone="no"?>
<svg
   xmlns:dc="http://purl.org/dc/elements/1.1/"
   xmlns:cc="http://creativecommons.org/ns#"
   xmlns:rdf="http://www.w3.org/1999/02/22-rdf-syntax-ns#"
   xmlns:svg="http://www.w3.org/2000/svg"
   xmlns="http://www.w3.org/2000/svg"
   xmlns:sodipodi="http://sodipodi.sourceforge.net/DTD/sodipodi-0.dtd"
   xmlns:inkscape="http://www.inkscape.org/namespaces/inkscape"
   width="22"
   height="22"
   version="1.1"
   id="svg21"
   sodipodi:docname="kdf.svg"
   inkscape:version="1.0.2 (e86c870879, 2021-01-15, custom)">
  <metadata
     id="metadata25">
    <rdf:RDF>
      <cc:Work
         rdf:about="">
        <dc:format>image/svg+xml</dc:format>
        <dc:type
           rdf:resource="http://purl.org/dc/dcmitype/StillImage" />
        <dc:title />
      </cc:Work>
    </rdf:RDF>
  </metadata>
  <sodipodi:namedview
     pagecolor="#c8c8c8"
     bordercolor="#666666"
     borderopacity="1"
     objecttolerance="10"
     gridtolerance="10"
     guidetolerance="10"
     inkscape:pageopacity="0"
     inkscape:pageshadow="2"
     inkscape:window-width="1920"
     inkscape:window-height="959"
     id="namedview23"
     showgrid="true"
     inkscape:zoom="12.454721"
     inkscape:cx="-13.185223"
     inkscape:cy="19.799509"
     inkscape:window-x="0"
     inkscape:window-y="40"
     inkscape:window-maximized="1"
     inkscape:current-layer="svg21"
     inkscape:document-rotation="0">
    <inkscape:grid
       type="xygrid"
       id="grid850" />
  </sodipodi:namedview>
  <defs
     id="defs3">
    <style
       id="current-color-scheme"
       type="text/css">.ColorScheme-Text { color:#dedede; } .ColorScheme-Highlight { color:#5294e2; } .ColorScheme-ButtonBackground { color:#dedede; }</style>
  </defs>
  <rect
     class="ColorScheme-Text"
     x="-20.43"
     y="-19.39"
     width="16"
     height="16"
     ry="0"
     opacity="0"
     id="rect5" />
  <g
     id="kdf"
     transform="translate(26,-10)">
    <path
       id="path9"
       d="M -26,10 V 32 H -4 V 10 Z"
       inkscape:connector-curvature="0"
       style="fill:none" />
    <g
       id="g921"
       transform="matrix(0.64285714,0,0,0.66666666,-55.5,11)">
      <path
         style="opacity:1;fill:#46dcdc;fill-opacity:1;stroke:none;stroke-width:1px;stroke-linecap:butt;stroke-linejoin:miter;stroke-opacity:1"
         d="m 49,3 h 9 l 2,3 h 2 v 4 h -1 l -3,3 v 1 h -3 z"
         id="path911"
         sodipodi:nodetypes="cccccccccc" />
      <path
         style="opacity:1;fill:#46dcdc;fill-opacity:1;stroke:none;stroke-width:1px;stroke-linecap:butt;stroke-linejoin:miter;stroke-opacity:1"
         d="m 77,3 h -9 l -2,3 h -2 v 4 h 1 l 3,3 v 1 h 3 z"
         id="path913"
         sodipodi:nodetypes="cccccccccc" />
      <path
         style="opacity:1;fill:#46dcdc;fill-opacity:1;stroke:none;stroke-width:1px;stroke-linecap:butt;stroke-linejoin:miter;stroke-opacity:1"
         d="m 49,27 h 9 l 2,-3 h 2 v -4 h -1 l -3,-3 v -1 h -3 z"
         id="path915"
         sodipodi:nodetypes="cccccccccc" />
      <path
         style="opacity:1;fill:#46dcdc;fill-opacity:1;stroke:none;stroke-width:1px;stroke-linecap:butt;stroke-linejoin:miter;stroke-opacity:1"
         d="m 77,27 h -9 l -2,-3 h -2 v -4 h 1 l 3,-3 v -1 h 3 z"
         id="path917"
         sodipodi:nodetypes="cccccccccc" />
      <path
         style="fill:#46dcdc;fill-opacity:1;stroke:none;stroke-width:1px;stroke-linecap:butt;stroke-linejoin:miter;stroke-opacity:1"
         d="m 61,12 h 4 l 2,2 -1,4 -3,1 -3,-1 -1,-4 z"
         id="path919" />
    </g>
  </g>
  <g
     id="16-16-kdf"
     transform="translate(26.000001,-10)">
    <path
       id="path17-3"
       d="m -42,16 v 16 h 16 V 16 Z"
       inkscape:connector-curvature="0"
       style="fill:none" />
    <g
       id="g959"
       transform="matrix(0.49999999,0,0,0.5,-65.5,16.5)">
      <path
         style="opacity:1;fill:#46dcdc;fill-opacity:1;stroke:none;stroke-width:1px;stroke-linecap:butt;stroke-linejoin:miter;stroke-opacity:1"
         d="m 49,3 h 9 l 2,3 h 2 v 4 h -1 l -3,3 v 1 h -3 z"
         id="path949"
         sodipodi:nodetypes="cccccccccc" />
      <path
         style="opacity:1;fill:#46dcdc;fill-opacity:1;stroke:none;stroke-width:1px;stroke-linecap:butt;stroke-linejoin:miter;stroke-opacity:1"
         d="m 77,3 h -9 l -2,3 h -2 v 4 h 1 l 3,3 v 1 h 3 z"
         id="path951"
         sodipodi:nodetypes="cccccccccc" />
      <path
         style="opacity:1;fill:#46dcdc;fill-opacity:1;stroke:none;stroke-width:1px;stroke-linecap:butt;stroke-linejoin:miter;stroke-opacity:1"
         d="m 49,27 h 9 l 2,-3 h 2 v -4 h -1 l -3,-3 v -1 h -3 z"
         id="path953"
         sodipodi:nodetypes="cccccccccc" />
      <path
         style="opacity:1;fill:#46dcdc;fill-opacity:1;stroke:none;stroke-width:1px;stroke-linecap:butt;stroke-linejoin:miter;stroke-opacity:1"
         d="m 77,27 h -9 l -2,-3 h -2 v -4 h 1 l 3,-3 v -1 h 3 z"
         id="path955"
         sodipodi:nodetypes="cccccccccc" />
      <path
         style="fill:#46dcdc;fill-opacity:1;stroke:none;stroke-width:1px;stroke-linecap:butt;stroke-linejoin:miter;stroke-opacity:1"
         d="m 61,12 h 4 l 2,2 -1,4 -3,1 -3,-1 -1,-4 z"
         id="path957" />
    </g>
  </g>
</svg>
