<?xml version="1.0" encoding="UTF-8" standalone="no"?>
<svg
   xmlns:dc="http://purl.org/dc/elements/1.1/"
   xmlns:cc="http://creativecommons.org/ns#"
   xmlns:rdf="http://www.w3.org/1999/02/22-rdf-syntax-ns#"
   xmlns:svg="http://www.w3.org/2000/svg"
   xmlns="http://www.w3.org/2000/svg"
   xmlns:sodipodi="http://sodipodi.sourceforge.net/DTD/sodipodi-0.dtd"
   xmlns:inkscape="http://www.inkscape.org/namespaces/inkscape"
   width="32"
   height="32"
   version="1"
   id="svg12"
   sodipodi:docname="knotes.svg"
   inkscape:version="1.0.2 (e86c870879, 2021-01-15)">
  <metadata
     id="metadata18">
    <rdf:RDF>
      <cc:Work
         rdf:about="">
        <dc:format>image/svg+xml</dc:format>
        <dc:type
           rdf:resource="http://purl.org/dc/dcmitype/StillImage" />
        <dc:title />
      </cc:Work>
    </rdf:RDF>
  </metadata>
  <defs
     id="defs16" />
  <sodipodi:namedview
     pagecolor="#c8c8c8"
     bordercolor="#666666"
     borderopacity="1"
     objecttolerance="10"
     gridtolerance="10"
     guidetolerance="10"
     inkscape:pageopacity="0"
     inkscape:pageshadow="2"
     inkscape:window-width="1920"
     inkscape:window-height="938"
     id="namedview14"
     showgrid="true"
     inkscape:zoom="3.4692428"
     inkscape:cx="-48.976999"
     inkscape:cy="54.823591"
     inkscape:window-x="0"
     inkscape:window-y="38"
     inkscape:window-maximized="1"
     inkscape:current-layer="svg12"
     inkscape:document-rotation="0">
    <inkscape:grid
       type="xygrid"
       id="grid857"
       originx="0"
       originy="0" />
  </sodipodi:namedview>
  <g
     id="22-22-knotes"
     transform="translate(-323.00044,-524.11515)">
    <rect
       style="fill:none;fill-opacity:1;stroke:none;stroke-width:0.138587;stroke-linecap:square;stroke-linejoin:miter;stroke-miterlimit:4;stroke-dasharray:none;stroke-dashoffset:0;stroke-opacity:1"
       id="rect4444"
       width="22"
       height="22"
       x="355"
       y="534.36218" />
    <g
       id="g899"
       transform="translate(55.00044,-31.247007)">
      <path
         id="path873"
         style="fill:#46dcdc;fill-opacity:1;stroke:none;stroke-width:1px;stroke-linecap:butt;stroke-linejoin:miter;stroke-opacity:1"
         d="m 310.99956,567.1092 -2,0.53516 -2,1.46484 v 3 l -3,4 2,5 4.00044,2.25296 h 1 1 l 3.99956,-2.25296 2,-5 -3,-4 v -3 l -2,-1.46484 z"
         sodipodi:nodetypes="ccccccccccccccc" />
      <path
         style="fill:#46dcdc;fill-opacity:1;stroke:none;stroke-width:1px;stroke-linecap:butt;stroke-linejoin:miter;stroke-opacity:1"
         d="m 305.99956,569.10918 v 3 L 304.007,574.36216 304,571.10918 Z"
         id="path878" />
      <path
         style="fill:#46dcdc;fill-opacity:1;stroke:none;stroke-width:1px;stroke-linecap:butt;stroke-linejoin:miter;stroke-opacity:1"
         d="m 316,569.10918 v 3 l 1.99256,2.25298 0.007,-3.25298 z"
         id="path880" />
      <path
         style="fill:#46dcdc;fill-opacity:1;stroke:none;stroke-width:1px;stroke-linecap:butt;stroke-linejoin:miter;stroke-opacity:1"
         d="m 305.99956,582.10918 1,1 3,1 h 2 l 4,-2 -1,3 -3,1 h -2 l -3,-1 z"
         id="path882" />
      <path
         style="fill:#037c7c;fill-opacity:1;stroke:none;stroke-width:1px;stroke-linecap:butt;stroke-linejoin:miter;stroke-opacity:1"
         d="m 308,582.36216 2,-2 h 2 l 2,2 -2,1 h -2 z"
         id="path886" />
      <path
         style="fill:#037c7c;fill-opacity:1;stroke:none;stroke-width:1px;stroke-linecap:butt;stroke-linejoin:miter;stroke-opacity:1"
         d="m 307,574.36216 4,1 4,-1 v 2 l -1,1 -3,1 -3,-1 -1,-1 z"
         id="path888" />
      <path
         style="fill:#037c7c;fill-opacity:1;stroke:none;stroke-width:1px;stroke-linecap:butt;stroke-linejoin:miter;stroke-opacity:1"
         d="m 309,571.36216 1,1 1,-1 1,1 1,-1 v 1.00002 l -1,0.99998 h -1 -1 l -1,-0.99998 z"
         id="path890" />
    </g>
  </g>
  <g
     id="knotes"
     transform="translate(-321,-529.36218)">
    <rect
       y="529.36218"
       x="321"
       height="32"
       width="32"
       id="rect4436"
       style="fill:none;fill-opacity:1;stroke:none;stroke-width:0.1;stroke-linecap:square;stroke-linejoin:miter;stroke-miterlimit:4;stroke-dasharray:none;stroke-dashoffset:0;stroke-opacity:1" />
    <g
       id="g915"
       transform="matrix(1.4736858,0,0,1.4736858,-121.31564,-304.3786)">
      <path
         id="path901"
         style="fill:#46dcdc;fill-opacity:1;stroke:none;stroke-width:1px;stroke-linecap:butt;stroke-linejoin:miter;stroke-opacity:1"
         d="m 310.99956,567.1092 -2,0.53516 -2,1.46484 v 3 l -3,4 2,5 4.00044,2.25296 h 1 1 l 3.99956,-2.25296 2,-5 -3,-4 v -3 l -2,-1.46484 z"
         sodipodi:nodetypes="ccccccccccccccc" />
      <path
         style="fill:#46dcdc;fill-opacity:1;stroke:none;stroke-width:1px;stroke-linecap:butt;stroke-linejoin:miter;stroke-opacity:1"
         d="m 305.99956,569.10918 v 3 L 304.007,574.36216 304,571.10918 Z"
         id="path903" />
      <path
         style="fill:#46dcdc;fill-opacity:1;stroke:none;stroke-width:1px;stroke-linecap:butt;stroke-linejoin:miter;stroke-opacity:1"
         d="m 316,569.10918 v 3 l 1.99256,2.25298 0.007,-3.25298 z"
         id="path905" />
      <path
         style="fill:#46dcdc;fill-opacity:1;stroke:none;stroke-width:1px;stroke-linecap:butt;stroke-linejoin:miter;stroke-opacity:1"
         d="m 305.99956,582.10918 1,1 3,1 h 2 l 4,-2 -1,3 -3,1 h -2 l -3,-1 z"
         id="path907" />
      <path
         style="fill:#037c7c;fill-opacity:1;stroke:none;stroke-width:1px;stroke-linecap:butt;stroke-linejoin:miter;stroke-opacity:1"
         d="m 308,582.36216 2,-2 h 2 l 2,2 -2,1 h -2 z"
         id="path909-3" />
      <path
         style="fill:#037c7c;fill-opacity:1;stroke:none;stroke-width:1px;stroke-linecap:butt;stroke-linejoin:miter;stroke-opacity:1"
         d="m 307,574.36216 4,1 4,-1 v 2 l -1,1 -3,1 -3,-1 -1,-1 z"
         id="path911-6" />
      <path
         style="fill:#037c7c;fill-opacity:1;stroke:none;stroke-width:1px;stroke-linecap:butt;stroke-linejoin:miter;stroke-opacity:1"
         d="m 309,571.36216 1,1 1,-1 1,1 1,-1 v 1.00002 l -1,0.99998 h -1 -1 l -1,-0.99998 z"
         id="path913" />
    </g>
  </g>
</svg>
