<?xml version="1.0" encoding="UTF-8" standalone="no"?>
<svg
   xmlns:dc="http://purl.org/dc/elements/1.1/"
   xmlns:cc="http://creativecommons.org/ns#"
   xmlns:rdf="http://www.w3.org/1999/02/22-rdf-syntax-ns#"
   xmlns:svg="http://www.w3.org/2000/svg"
   xmlns="http://www.w3.org/2000/svg"
   xmlns:sodipodi="http://sodipodi.sourceforge.net/DTD/sodipodi-0.dtd"
   xmlns:inkscape="http://www.inkscape.org/namespaces/inkscape"
   inkscape:version="1.0.1 (3bc2e813f5, 2020-09-07, custom)"
   sodipodi:docname="media.svg"
   id="svg67"
   viewBox="0 0 22 22"
   version="1.1"
   height="22"
   width="22">
  <metadata
     id="metadata71">
    <rdf:RDF>
      <cc:Work
         rdf:about="">
        <dc:format>image/svg+xml</dc:format>
        <dc:type
           rdf:resource="http://purl.org/dc/dcmitype/StillImage" />
        <dc:title />
      </cc:Work>
    </rdf:RDF>
  </metadata>
  <sodipodi:namedview
     inkscape:bbox-nodes="true"
     inkscape:snap-bbox-edge-midpoints="true"
     inkscape:snap-bbox="true"
     inkscape:document-rotation="0"
     inkscape:current-layer="svg67"
     inkscape:window-maximized="1"
     inkscape:window-y="0"
     inkscape:window-x="0"
     inkscape:cy="40.901298"
     inkscape:cx="-7.1394674"
     inkscape:zoom="5.3636364"
     showgrid="true"
     id="namedview69"
     inkscape:window-height="985"
     inkscape:window-width="1920"
     inkscape:pageshadow="2"
     inkscape:pageopacity="0"
     guidetolerance="10"
     gridtolerance="10"
     objecttolerance="10"
     borderopacity="1"
     bordercolor="#666666"
     pagecolor="#c8c8c8">
    <inkscape:grid
       id="grid878"
       type="xygrid" />
  </sodipodi:namedview>
  <defs
     id="defs3">
    <style
       type="text/css"
       id="current-color-scheme">.ColorScheme-Text { color:#dedede; } .ColorScheme-Highlight { color:#5294e2; } .ColorScheme-ButtonBackground { color:#dedede; }</style>
  </defs>
  <g
     id="media-record"
     transform="translate(22,-1030.4)"
     style="fill:#000000">
    <rect
       y="1030.4"
       width="22"
       height="22"
       opacity="0.00100002"
       id="rect5"
       x="0" />
    <path
       class="ColorScheme-Highlight"
       d="m 11,1035.4 c -3.311,0 -6,2.6888 -6,6 0,3.311 2.689,6 6,6 3.311,0 6,-2.689 6,-6 0,-3.3112 -2.689,-6 -6,-6 z"
       enable-background="new"
       fill="#f96060"
       id="path7"
       style="fill:#ff3232;fill-opacity:1" />
  </g>
  <g
     id="media-playback-stop"
     transform="translate(44,-1030.4)"
     style="fill:#000000">
    <rect
       y="1030.4"
       width="22"
       height="22"
       opacity="0.00100002"
       id="rect10"
       x="0" />
    <path
       style="color:#dedede;font-style:normal;font-variant:normal;font-weight:normal;font-stretch:normal;font-size:medium;line-height:normal;font-family:sans-serif;font-variant-ligatures:normal;font-variant-position:normal;font-variant-caps:normal;font-variant-numeric:normal;font-variant-alternates:normal;font-variant-east-asian:normal;font-feature-settings:normal;font-variation-settings:normal;text-indent:0;text-align:start;text-decoration:none;text-decoration-line:none;text-decoration-style:solid;text-decoration-color:#000000;letter-spacing:normal;word-spacing:normal;text-transform:none;writing-mode:lr-tb;direction:ltr;text-orientation:mixed;dominant-baseline:auto;baseline-shift:baseline;text-anchor:start;white-space:normal;shape-padding:0;shape-margin:0;inline-size:0;clip-rule:nonzero;display:inline;overflow:visible;visibility:visible;isolation:auto;mix-blend-mode:normal;color-interpolation:sRGB;color-interpolation-filters:linearRGB;solid-color:#000000;solid-opacity:1;vector-effect:none;fill:#46dcdc;fill-opacity:1;fill-rule:nonzero;stroke:none;stroke-width:1;stroke-linecap:butt;stroke-linejoin:miter;stroke-miterlimit:4;stroke-dasharray:none;stroke-dashoffset:0;stroke-opacity:1;color-rendering:auto;image-rendering:auto;shape-rendering:auto;text-rendering:auto;enable-background:new;stop-color:#000000"
       d="m 5,1035.4 v 12 h 12 v -12 z"
       id="path1315" />
  </g>
  <g
     id="media-skip-forward"
     transform="translate(66,-1030.4)"
     style="fill:#000000">
    <rect
       y="1030.4"
       width="22"
       height="22"
       opacity="0.00100002"
       id="rect15"
       x="0" />
    <path
       style="color:#dedede;font-style:normal;font-variant:normal;font-weight:normal;font-stretch:normal;font-size:medium;line-height:normal;font-family:sans-serif;font-variant-ligatures:normal;font-variant-position:normal;font-variant-caps:normal;font-variant-numeric:normal;font-variant-alternates:normal;font-variant-east-asian:normal;font-feature-settings:normal;font-variation-settings:normal;text-indent:0;text-align:start;text-decoration:none;text-decoration-line:none;text-decoration-style:solid;text-decoration-color:#000000;letter-spacing:normal;word-spacing:normal;text-transform:none;writing-mode:lr-tb;direction:ltr;text-orientation:mixed;dominant-baseline:auto;baseline-shift:baseline;text-anchor:start;white-space:normal;shape-padding:0;shape-margin:0;inline-size:0;clip-rule:nonzero;display:inline;overflow:visible;visibility:visible;isolation:auto;mix-blend-mode:normal;color-interpolation:sRGB;color-interpolation-filters:linearRGB;solid-color:#000000;solid-opacity:1;vector-effect:none;fill:#46dcdc;fill-opacity:1;fill-rule:nonzero;stroke:none;stroke-width:1;stroke-linecap:butt;stroke-linejoin:miter;stroke-miterlimit:4;stroke-dasharray:none;stroke-dashoffset:0;stroke-opacity:1;color-rendering:auto;image-rendering:auto;shape-rendering:auto;text-rendering:auto;enable-background:new;stop-color:#000000"
       d="m 19,1037.4 v 8 h -2 v -8 z m -2,4 -7,4 v -8 z m -7,0 -7,4 v -8 z"
       id="path1321" />
  </g>
  <g
     id="media-skip-backward"
     transform="matrix(-1,0,0,1,110,-1030.4)"
     style="fill:#000000">
    <rect
       y="1030.4"
       width="22"
       height="22"
       opacity="0.00100002"
       id="rect20"
       x="0" />
    <path
       style="color:#dedede;font-style:normal;font-variant:normal;font-weight:normal;font-stretch:normal;font-size:medium;line-height:normal;font-family:sans-serif;font-variant-ligatures:normal;font-variant-position:normal;font-variant-caps:normal;font-variant-numeric:normal;font-variant-alternates:normal;font-variant-east-asian:normal;font-feature-settings:normal;font-variation-settings:normal;text-indent:0;text-align:start;text-decoration:none;text-decoration-line:none;text-decoration-style:solid;text-decoration-color:#000000;letter-spacing:normal;word-spacing:normal;text-transform:none;writing-mode:lr-tb;direction:ltr;text-orientation:mixed;dominant-baseline:auto;baseline-shift:baseline;text-anchor:start;white-space:normal;shape-padding:0;shape-margin:0;inline-size:0;clip-rule:nonzero;display:inline;overflow:visible;visibility:visible;isolation:auto;mix-blend-mode:normal;color-interpolation:sRGB;color-interpolation-filters:linearRGB;solid-color:#000000;solid-opacity:1;vector-effect:none;fill:#46dcdc;fill-opacity:1;fill-rule:nonzero;stroke:none;stroke-width:1;stroke-linecap:butt;stroke-linejoin:miter;stroke-miterlimit:4;stroke-dasharray:none;stroke-dashoffset:0;stroke-opacity:1;color-rendering:auto;image-rendering:auto;shape-rendering:auto;text-rendering:auto;enable-background:new;stop-color:#000000"
       d="m 19,1037.4 v 8 h -2 v -8 z m -2,4 -7,4 v -8 z m -7,0 -7,4 v -8 z"
       id="path1327" />
  </g>
  <g
     id="media-seek-forward"
     transform="translate(110,-1030.4)"
     style="fill:#000000">
    <rect
       y="1030.4"
       width="22"
       height="22"
       opacity="0.00100002"
       id="rect25"
       x="0" />
    <path
       style="color:#dedede;font-style:normal;font-variant:normal;font-weight:normal;font-stretch:normal;font-size:medium;line-height:normal;font-family:sans-serif;font-variant-ligatures:normal;font-variant-position:normal;font-variant-caps:normal;font-variant-numeric:normal;font-variant-alternates:normal;font-variant-east-asian:normal;font-feature-settings:normal;font-variation-settings:normal;text-indent:0;text-align:start;text-decoration:none;text-decoration-line:none;text-decoration-style:solid;text-decoration-color:#000000;letter-spacing:normal;word-spacing:normal;text-transform:none;writing-mode:lr-tb;direction:ltr;text-orientation:mixed;dominant-baseline:auto;baseline-shift:baseline;text-anchor:start;white-space:normal;shape-padding:0;shape-margin:0;inline-size:0;clip-rule:nonzero;display:inline;overflow:visible;visibility:visible;isolation:auto;mix-blend-mode:normal;color-interpolation:sRGB;color-interpolation-filters:linearRGB;solid-color:#000000;solid-opacity:1;vector-effect:none;fill:#46dcdc;fill-opacity:1;fill-rule:nonzero;stroke:none;stroke-width:1;stroke-linecap:butt;stroke-linejoin:miter;stroke-miterlimit:4;stroke-dasharray:none;stroke-dashoffset:0;stroke-opacity:1;color-rendering:auto;image-rendering:auto;shape-rendering:auto;text-rendering:auto;enable-background:new;stop-color:#000000"
       d="m 11,1037.4 7,4 -7,4 z m 0,4 -7,4 v -8 z"
       id="path1333" />
  </g>
  <g
     id="media-seek-backward"
     transform="matrix(-1,0,0,1,154,-1030.4)"
     style="fill:#000000">
    <rect
       y="1030.4"
       width="22"
       height="22"
       opacity="0.00100002"
       id="rect30"
       x="0" />
    <path
       style="color:#dedede;font-style:normal;font-variant:normal;font-weight:normal;font-stretch:normal;font-size:medium;line-height:normal;font-family:sans-serif;font-variant-ligatures:normal;font-variant-position:normal;font-variant-caps:normal;font-variant-numeric:normal;font-variant-alternates:normal;font-variant-east-asian:normal;font-feature-settings:normal;font-variation-settings:normal;text-indent:0;text-align:start;text-decoration:none;text-decoration-line:none;text-decoration-style:solid;text-decoration-color:#000000;letter-spacing:normal;word-spacing:normal;text-transform:none;writing-mode:lr-tb;direction:ltr;text-orientation:mixed;dominant-baseline:auto;baseline-shift:baseline;text-anchor:start;white-space:normal;shape-padding:0;shape-margin:0;inline-size:0;clip-rule:nonzero;display:inline;overflow:visible;visibility:visible;isolation:auto;mix-blend-mode:normal;color-interpolation:sRGB;color-interpolation-filters:linearRGB;solid-color:#000000;solid-opacity:1;vector-effect:none;fill:#46dcdc;fill-opacity:1;fill-rule:nonzero;stroke:none;stroke-width:1;stroke-linecap:butt;stroke-linejoin:miter;stroke-miterlimit:4;stroke-dasharray:none;stroke-dashoffset:0;stroke-opacity:1;color-rendering:auto;image-rendering:auto;shape-rendering:auto;text-rendering:auto;enable-background:new;stop-color:#000000"
       d="m 11,1037.4 7,4 -7,4 z m 0,4 -7,4 v -8 z"
       id="path1339" />
  </g>
  <g
     id="media-eject"
     transform="translate(-44,-1030.4)"
     style="fill:#000000">
    <rect
       y="1030.4"
       width="22"
       height="22"
       opacity="0.00100002"
       id="rect35"
       x="0" />
    <path
       style="color:#dedede;font-style:normal;font-variant:normal;font-weight:normal;font-stretch:normal;font-size:medium;line-height:normal;font-family:sans-serif;font-variant-ligatures:normal;font-variant-position:normal;font-variant-caps:normal;font-variant-numeric:normal;font-variant-alternates:normal;font-variant-east-asian:normal;font-feature-settings:normal;font-variation-settings:normal;text-indent:0;text-align:start;text-decoration:none;text-decoration-line:none;text-decoration-style:solid;text-decoration-color:#000000;letter-spacing:normal;word-spacing:normal;text-transform:none;writing-mode:lr-tb;direction:ltr;text-orientation:mixed;dominant-baseline:auto;baseline-shift:baseline;text-anchor:start;white-space:normal;shape-padding:0;shape-margin:0;inline-size:0;clip-rule:nonzero;display:block;overflow:visible;visibility:visible;isolation:auto;mix-blend-mode:normal;color-interpolation:sRGB;color-interpolation-filters:linearRGB;solid-color:#000000;solid-opacity:1;vector-effect:none;fill:#46dcdc;fill-opacity:1;fill-rule:nonzero;stroke:none;stroke-width:1;stroke-linecap:butt;stroke-linejoin:miter;stroke-miterlimit:4;stroke-dasharray:none;stroke-dashoffset:0;stroke-opacity:1;color-rendering:auto;image-rendering:auto;shape-rendering:auto;text-rendering:auto;enable-background:accumulate;stop-color:#000000"
       d="m 11,1036.4 -5,5 v 1 h 10 v -1 z m -5,8 v 2 h 10 v -2 z"
       id="path1291" />
  </g>
  <g
     id="media-playback-pause"
     transform="translate(-22,-1030.4)"
     style="fill:#000000">
    <rect
       y="1030.4"
       width="22"
       height="22"
       opacity="0.00100002"
       id="rect40"
       x="0" />
    <path
       style="color:#dedede;font-style:normal;font-variant:normal;font-weight:normal;font-stretch:normal;font-size:medium;line-height:normal;font-family:sans-serif;font-variant-ligatures:normal;font-variant-position:normal;font-variant-caps:normal;font-variant-numeric:normal;font-variant-alternates:normal;font-variant-east-asian:normal;font-feature-settings:normal;font-variation-settings:normal;text-indent:0;text-align:start;text-decoration:none;text-decoration-line:none;text-decoration-style:solid;text-decoration-color:#000000;letter-spacing:normal;word-spacing:normal;text-transform:none;writing-mode:lr-tb;direction:ltr;text-orientation:mixed;dominant-baseline:auto;baseline-shift:baseline;text-anchor:start;white-space:normal;shape-padding:0;shape-margin:0;inline-size:0;clip-rule:nonzero;display:inline;overflow:visible;visibility:visible;isolation:auto;mix-blend-mode:normal;color-interpolation:sRGB;color-interpolation-filters:linearRGB;solid-color:#000000;solid-opacity:1;vector-effect:none;fill:#46dcdc;fill-opacity:1;fill-rule:nonzero;stroke:none;stroke-width:1;stroke-linecap:butt;stroke-linejoin:miter;stroke-miterlimit:4;stroke-dasharray:none;stroke-dashoffset:0;stroke-opacity:1;color-rendering:auto;image-rendering:auto;shape-rendering:auto;text-rendering:auto;enable-background:new;stop-color:#000000"
       d="m 5,1035.4 v 12 h 4 v -12 z m 8,0 v 12 h 4 v -12 z"
       id="path1299" />
  </g>
  <g
     id="media-playback-start"
     transform="translate(0,-1030.4)"
     style="fill:#000000">
    <rect
       y="1030.4"
       width="22"
       height="22"
       opacity="0.00100002"
       id="rect45"
       x="0" />
    <path
       style="color:#dedede;font-style:normal;font-variant:normal;font-weight:normal;font-stretch:normal;font-size:medium;line-height:normal;font-family:sans-serif;font-variant-ligatures:normal;font-variant-position:normal;font-variant-caps:normal;font-variant-numeric:normal;font-variant-alternates:normal;font-variant-east-asian:normal;font-feature-settings:normal;font-variation-settings:normal;text-indent:0;text-align:start;text-decoration:none;text-decoration-line:none;text-decoration-style:solid;text-decoration-color:#000000;letter-spacing:normal;word-spacing:normal;text-transform:none;writing-mode:lr-tb;direction:ltr;text-orientation:mixed;dominant-baseline:auto;baseline-shift:baseline;text-anchor:start;white-space:normal;shape-padding:0;shape-margin:0;inline-size:0;clip-rule:nonzero;display:inline;overflow:visible;visibility:visible;isolation:auto;mix-blend-mode:normal;color-interpolation:sRGB;color-interpolation-filters:linearRGB;solid-color:#000000;solid-opacity:1;vector-effect:none;fill:#46dcdc;fill-opacity:1;fill-rule:nonzero;stroke:none;stroke-width:1;stroke-linecap:butt;stroke-linejoin:miter;stroke-miterlimit:4;stroke-dasharray:none;stroke-dashoffset:0;stroke-opacity:1;color-rendering:auto;image-rendering:auto;shape-rendering:auto;text-rendering:auto;enable-background:new;stop-color:#000000"
       d="m 6,1035.4 v 12 l 11,-6 -9.8992,-5.3996 z"
       id="path1307" />
  </g>
  <g
     id="media-playback-playing">
    <path
       style="fill:none;stroke:#46dcdc;stroke-width:1px;stroke-linecap:butt;stroke-linejoin:miter;stroke-opacity:1"
       d="m 44.525658,40 c 0,0 1,2 0,5"
       id="path969" />
    <rect
       style="color:#dedede;stroke-width:1.5"
       x="24.99975"
       y="32.999752"
       width="22.0005"
       height="22.0005"
       fill="#ed1515"
       fill-opacity="0.00392163"
       opacity="0.01"
       id="rect55" />
    <g
       id="g937"
       transform="translate(11,-33.999998)">
      <circle
         style="fill:#46dcdc;stroke:none;stroke-width:0.426631;stroke-linecap:round;paint-order:stroke fill markers"
         id="path887"
         cx="17"
         cy="85"
         r="2" />
      <circle
         style="fill:#46dcdc;stroke:none;stroke-width:0.213316;stroke-linecap:round;paint-order:stroke fill markers"
         id="circle891"
         cx="20"
         cy="83"
         r="1" />
      <rect
         style="fill:#46dcdc;stroke:none;stroke-width:0.5;stroke-linecap:round;paint-order:stroke fill markers"
         id="rect893"
         width="2"
         height="1"
         x="-47.004833"
         y="72.289108"
         transform="rotate(-45)" />
      <rect
         style="fill:#46dcdc;stroke:none;stroke-width:0.57735;stroke-linecap:round;paint-order:stroke fill markers"
         id="rect895"
         width="1"
         height="8"
         x="20"
         y="75" />
      <circle
         style="fill:#46dcdc;stroke:none;stroke-width:0.319974;stroke-linecap:round;paint-order:stroke fill markers"
         id="circle897"
         cx="20.5"
         cy="75.5"
         r="1.5" />
      <circle
         style="fill:#46dcdc;stroke:none;stroke-width:0.319974;stroke-linecap:round;paint-order:stroke fill markers"
         id="circle899"
         cx="20.5"
         cy="70.5"
         r="1.5" />
      <rect
         style="fill:#46dcdc;stroke:none;stroke-width:0.408248;stroke-linecap:round;paint-order:stroke fill markers"
         id="rect901"
         width="1"
         height="4"
         x="20"
         y="71" />
      <rect
         style="fill:#46dcdc;stroke:none;stroke-width:0.527046;stroke-linecap:round;paint-order:stroke fill markers"
         id="rect903"
         width="10"
         height="1"
         x="20"
         y="71" />
      <rect
         style="fill:#46dcdc;stroke:none;stroke-width:0.527046;stroke-linecap:round;paint-order:stroke fill markers"
         id="rect905"
         width="10"
         height="1"
         x="20"
         y="75" />
      <circle
         style="fill:#46dcdc;stroke:none;stroke-width:0.426631;stroke-linecap:round;paint-order:stroke fill markers"
         id="circle907"
         cx="27"
         cy="85"
         r="2" />
      <circle
         style="fill:#46dcdc;stroke:none;stroke-width:0.213316;stroke-linecap:round;paint-order:stroke fill markers"
         id="circle909"
         cx="30"
         cy="83"
         r="1" />
      <rect
         style="fill:#46dcdc;stroke:none;stroke-width:0.5;stroke-linecap:round;paint-order:stroke fill markers"
         id="rect911"
         width="2"
         height="1"
         x="-39.933765"
         y="79.360176"
         transform="rotate(-45)" />
      <rect
         style="fill:#46dcdc;stroke:none;stroke-width:0.57735;stroke-linecap:round;paint-order:stroke fill markers"
         id="rect913"
         width="1"
         height="8"
         x="30"
         y="75" />
      <circle
         style="fill:#46dcdc;stroke:none;stroke-width:0.319974;stroke-linecap:round;paint-order:stroke fill markers"
         id="circle915"
         cx="30.5"
         cy="75.5"
         r="1.5" />
      <circle
         style="fill:#46dcdc;stroke:none;stroke-width:0.319974;stroke-linecap:round;paint-order:stroke fill markers"
         id="circle917"
         cx="30.5"
         cy="70.5"
         r="1.5" />
      <rect
         style="fill:#46dcdc;stroke:none;stroke-width:0.408248;stroke-linecap:round;paint-order:stroke fill markers"
         id="rect919"
         width="1"
         height="4"
         x="30"
         y="71" />
    </g>
    <path
       style="fill:none;stroke:#46dcdc;stroke-width:1px;stroke-linecap:butt;stroke-linejoin:miter;stroke-opacity:1"
       d="m 29,40 c 0,0 -1,2 0,5"
       id="path965" />
  </g>
  <g
     id="media-playback-paused">
    <rect
       style="color:#dedede;stroke-width:1.5"
       x="0.99975014"
       y="32.999752"
       width="22.0005"
       height="22.0005"
       fill="#ed1515"
       fill-opacity="0.00392163"
       opacity="0.01"
       id="rect1059" />
    <g
       id="g1093"
       transform="translate(-13,-33.999996)"
       style="opacity:1">
      <circle
         style="fill:#46dcdc;stroke:none;stroke-width:0.426631;stroke-linecap:round;paint-order:stroke fill markers"
         id="circle1061"
         cx="17"
         cy="85"
         r="2" />
      <circle
         style="fill:#46dcdc;stroke:none;stroke-width:0.213316;stroke-linecap:round;paint-order:stroke fill markers"
         id="circle1063"
         cx="20"
         cy="83"
         r="1" />
      <path
         id="rect1065"
         style="fill:#46dcdc;stroke:none;stroke-width:0.5;stroke-linecap:round;paint-order:stroke fill markers"
         d="m 3.0234375,76.208984 -0.4980469,0.498047 a 2,2 0 0 1 0.4472656,0.966797 l 0.7226563,-0.722656 a 1,1 0 0 1 -0.671875,-0.742188 z"
         transform="translate(16,7)" />
      <path
         id="rect1067"
         style="fill:#46dcdc;stroke:none;stroke-width:0.57735;stroke-linecap:round;paint-order:stroke fill markers;opacity:0.3"
         d="M 5,69.912109 A 1.5,1.5 0 0 1 4.5,70 1.5,1.5 0 0 1 4,69.914062 V 75 a 1,1 0 0 1 1,1 z"
         transform="translate(16,7)" />
      <circle
         style="fill:#46dcdc;stroke:none;stroke-width:0.319974;stroke-linecap:round;paint-order:stroke fill markers;opacity:0.3"
         id="circle1069"
         cx="20.5"
         cy="75.5"
         r="1.5" />
      <circle
         style="fill:#46dcdc;stroke:none;stroke-width:0.319974;stroke-linecap:round;paint-order:stroke fill markers;opacity:0.3"
         id="circle1071"
         cx="20.5"
         cy="70.5"
         r="1.5" />
      <path
         id="rect1073"
         style="fill:#46dcdc;stroke:none;stroke-width:0.408248;stroke-linecap:round;paint-order:stroke fill markers;opacity:0.3"
         d="M 5,64.912109 A 1.5,1.5 0 0 1 4.5,65 1.5,1.5 0 0 1 4,64.914062 v 2.173829 A 1.5,1.5 0 0 1 4.5,67 1.5,1.5 0 0 1 5,67.085938 Z"
         transform="translate(16,7)" />
      <path
         id="rect1075"
         style="fill:#46dcdc;stroke:none;stroke-width:0.527046;stroke-linecap:round;paint-order:stroke fill markers;opacity:0.3"
         d="M 5.9140625,64 A 1.5,1.5 0 0 1 4.5,65 H 14 V 64.91406 A 1.5,1.5 0 0 1 13.087891,64 Z M 4.5,65 A 1.5,1.5 0 0 1 4,64.914062 V 65 Z"
         transform="translate(16,7)" />
      <path
         id="rect1077"
         style="fill:#46dcdc;stroke:none;stroke-width:0.527046;stroke-linecap:round;paint-order:stroke fill markers;opacity:0.3"
         d="M 5.9121094,68 A 1.5,1.5 0 0 1 6,68.5 1.5,1.5 0 0 1 5.9140625,69 H 13.087891 A 1.5,1.5 0 0 1 13,68.5 1.5,1.5 0 0 1 13.085938,68 Z"
         transform="translate(16,7)" />
      <circle
         style="fill:#46dcdc;stroke:none;stroke-width:0.426631;stroke-linecap:round;paint-order:stroke fill markers"
         id="circle1079"
         cx="27"
         cy="85"
         r="2" />
      <circle
         style="fill:#46dcdc;stroke:none;stroke-width:0.213316;stroke-linecap:round;paint-order:stroke fill markers"
         id="circle1081"
         cx="30"
         cy="83"
         r="1" />
      <path
         id="rect1083"
         style="fill:#46dcdc;stroke:none;stroke-width:0.5;stroke-linecap:round;paint-order:stroke fill markers"
         d="m 13.023438,76.208984 -0.498047,0.498047 a 2,2 0 0 1 0.447265,0.966797 l 0.722656,-0.722656 a 1,1 0 0 1 -0.671874,-0.742188 z"
         transform="translate(16,7)" />
      <path
         id="rect1085"
         style="fill:#46dcdc;stroke:none;stroke-width:0.57735;stroke-linecap:round;paint-order:stroke fill markers;opacity:0.3"
         d="M 15,69.912109 A 1.5,1.5 0 0 1 14.5,70 1.5,1.5 0 0 1 14,69.914062 V 75 a 1,1 0 0 1 1,1 z"
         transform="translate(16,7)" />
      <circle
         style="fill:#46dcdc;stroke:none;stroke-width:0.319974;stroke-linecap:round;paint-order:stroke fill markers;opacity:0.3"
         id="circle1087"
         cx="30.5"
         cy="75.5"
         r="1.5" />
      <circle
         style="fill:#46dcdc;stroke:none;stroke-width:0.319974;stroke-linecap:round;paint-order:stroke fill markers;opacity:0.3"
         id="circle1089"
         cx="30.5"
         cy="70.5"
         r="1.5" />
      <path
         id="rect1091"
         style="fill:#46dcdc;stroke:none;stroke-width:0.408248;stroke-linecap:round;paint-order:stroke fill markers;opacity:0.3"
         d="M 15,64.912109 A 1.5,1.5 0 0 1 14.5,65 1.5,1.5 0 0 1 14,64.914062 v 2.173829 A 1.5,1.5 0 0 1 14.5,67 1.5,1.5 0 0 1 15,67.085938 Z"
         transform="translate(16,7)" />
    </g>
  </g>
  <g
     id="media-playback-stopped"
     transform="translate(51,-26.999996)">
    <rect
       style="color:#dedede;stroke-width:1.5"
       x="-2.0002499"
       y="59.999748"
       width="22.0005"
       height="22.0005"
       fill="#ed1515"
       fill-opacity="0.00392163"
       opacity="0.01"
       id="rect1251" />
    <g
       id="g1285"
       transform="translate(-16,-7)"
       style="opacity:0.3">
      <circle
         style="fill:#46dcdc;stroke:none;stroke-width:0.426631;stroke-linecap:round;paint-order:stroke fill markers;fill-opacity:1"
         id="circle1253"
         cx="17"
         cy="85"
         r="2" />
      <circle
         style="fill:#46dcdc;stroke:none;stroke-width:0.213316;stroke-linecap:round;paint-order:stroke fill markers;fill-opacity:1"
         id="circle1255"
         cx="20"
         cy="83"
         r="1" />
      <path
         id="path1257"
         style="fill:#46dcdc;stroke:none;stroke-width:0.5;stroke-linecap:round;paint-order:stroke fill markers;fill-opacity:1"
         d="m 3.0234375,76.208984 -0.4980469,0.498047 a 2,2 0 0 1 0.4472656,0.966797 l 0.7226563,-0.722656 a 1,1 0 0 1 -0.671875,-0.742188 z"
         transform="translate(16,7)" />
      <path
         id="path1259"
         style="fill:#46dcdc;stroke:none;stroke-width:0.57735;stroke-linecap:round;paint-order:stroke fill markers;fill-opacity:1"
         d="M 5,69.912109 A 1.5,1.5 0 0 1 4.5,70 1.5,1.5 0 0 1 4,69.914062 V 75 a 1,1 0 0 1 1,1 z"
         transform="translate(16,7)" />
      <circle
         style="fill:#46dcdc;stroke:none;stroke-width:0.319974;stroke-linecap:round;paint-order:stroke fill markers;fill-opacity:1"
         id="circle1261"
         cx="20.5"
         cy="75.5"
         r="1.5" />
      <circle
         style="fill:#46dcdc;stroke:none;stroke-width:0.319974;stroke-linecap:round;paint-order:stroke fill markers;fill-opacity:1"
         id="circle1263"
         cx="20.5"
         cy="70.5"
         r="1.5" />
      <path
         id="path1265"
         style="fill:#46dcdc;stroke:none;stroke-width:0.408248;stroke-linecap:round;paint-order:stroke fill markers;fill-opacity:1"
         d="M 5,64.912109 A 1.5,1.5 0 0 1 4.5,65 1.5,1.5 0 0 1 4,64.914062 v 2.173829 A 1.5,1.5 0 0 1 4.5,67 1.5,1.5 0 0 1 5,67.085938 Z"
         transform="translate(16,7)" />
      <path
         id="path1267"
         style="fill:#46dcdc;stroke:none;stroke-width:0.527046;stroke-linecap:round;paint-order:stroke fill markers;fill-opacity:1"
         d="M 5.9140625,64 A 1.5,1.5 0 0 1 4.5,65 H 14 V 64.91406 A 1.5,1.5 0 0 1 13.087891,64 Z M 4.5,65 A 1.5,1.5 0 0 1 4,64.914062 V 65 Z"
         transform="translate(16,7)" />
      <path
         id="path1269"
         style="fill:#46dcdc;stroke:none;stroke-width:0.527046;stroke-linecap:round;paint-order:stroke fill markers;fill-opacity:1"
         d="M 5.9121094,68 A 1.5,1.5 0 0 1 6,68.5 1.5,1.5 0 0 1 5.9140625,69 H 13.087891 A 1.5,1.5 0 0 1 13,68.5 1.5,1.5 0 0 1 13.085938,68 Z"
         transform="translate(16,7)" />
      <circle
         style="fill:#46dcdc;stroke:none;stroke-width:0.426631;stroke-linecap:round;paint-order:stroke fill markers;fill-opacity:1"
         id="circle1271"
         cx="27"
         cy="85"
         r="2" />
      <circle
         style="fill:#46dcdc;stroke:none;stroke-width:0.213316;stroke-linecap:round;paint-order:stroke fill markers;fill-opacity:1"
         id="circle1273"
         cx="30"
         cy="83"
         r="1" />
      <path
         id="path1275"
         style="fill:#46dcdc;stroke:none;stroke-width:0.5;stroke-linecap:round;paint-order:stroke fill markers;fill-opacity:1"
         d="m 13.023438,76.208984 -0.498047,0.498047 a 2,2 0 0 1 0.447265,0.966797 l 0.722656,-0.722656 a 1,1 0 0 1 -0.671874,-0.742188 z"
         transform="translate(16,7)" />
      <path
         id="path1277"
         style="fill:#46dcdc;stroke:none;stroke-width:0.57735;stroke-linecap:round;paint-order:stroke fill markers;fill-opacity:1"
         d="M 15,69.912109 A 1.5,1.5 0 0 1 14.5,70 1.5,1.5 0 0 1 14,69.914062 V 75 a 1,1 0 0 1 1,1 z"
         transform="translate(16,7)" />
      <circle
         style="fill:#46dcdc;stroke:none;stroke-width:0.319974;stroke-linecap:round;paint-order:stroke fill markers;fill-opacity:1"
         id="circle1279"
         cx="30.5"
         cy="75.5"
         r="1.5" />
      <circle
         style="fill:#46dcdc;stroke:none;stroke-width:0.319974;stroke-linecap:round;paint-order:stroke fill markers;fill-opacity:1"
         id="circle1281"
         cx="30.5"
         cy="70.5"
         r="1.5" />
      <path
         id="path1283"
         style="fill:#46dcdc;stroke:none;stroke-width:0.408248;stroke-linecap:round;paint-order:stroke fill markers;fill-opacity:1"
         d="M 15,64.912109 A 1.5,1.5 0 0 1 14.5,65 1.5,1.5 0 0 1 14,64.914062 v 2.173829 A 1.5,1.5 0 0 1 14.5,67 1.5,1.5 0 0 1 15,67.085938 Z"
         transform="translate(16,7)" />
    </g>
  </g>
</svg>
