<?xml version="1.0" encoding="UTF-8" standalone="no"?>
<svg
   xmlns:dc="http://purl.org/dc/elements/1.1/"
   xmlns:cc="http://creativecommons.org/ns#"
   xmlns:rdf="http://www.w3.org/1999/02/22-rdf-syntax-ns#"
   xmlns:svg="http://www.w3.org/2000/svg"
   xmlns="http://www.w3.org/2000/svg"
   xmlns:sodipodi="http://sodipodi.sourceforge.net/DTD/sodipodi-0.dtd"
   xmlns:inkscape="http://www.inkscape.org/namespaces/inkscape"
   id="svg"
   inkscape:version="1.0.1 (3bc2e813f5, 2020-09-07, custom)"
   sodipodi:docname="preferences.svg"
   version="1.1"
   viewBox="0 0 22 22">
  <metadata
     id="metadata27">
    <rdf:RDF>
      <cc:Work
         rdf:about="">
        <dc:format>image/svg+xml</dc:format>
        <dc:type
           rdf:resource="http://purl.org/dc/dcmitype/StillImage" />
      </cc:Work>
    </rdf:RDF>
  </metadata>
  <sodipodi:namedview
     id="namedview21"
     bordercolor="#666666"
     borderopacity="1"
     gridtolerance="10"
     guidetolerance="10"
     inkscape:bbox-nodes="true"
     inkscape:current-layer="svg"
     inkscape:cx="9.4191831"
     inkscape:cy="18.093297"
     inkscape:object-paths="true"
     inkscape:pageopacity="0"
     inkscape:pageshadow="2"
     inkscape:snap-bbox="true"
     inkscape:snap-bbox-edge-midpoints="true"
     inkscape:snap-intersection-paths="true"
     inkscape:snap-nodes="true"
     inkscape:snap-smooth-nodes="true"
     inkscape:window-height="985"
     inkscape:window-maximized="1"
     inkscape:window-width="1920"
     inkscape:window-x="0"
     inkscape:window-y="0"
     inkscape:zoom="10.727273"
     objecttolerance="10"
     pagecolor="#383838"
     showgrid="true"
     inkscape:document-rotation="0">
    <inkscape:grid
       id="grid855"
       type="xygrid" />
  </sodipodi:namedview>
  <defs
     id="defs7386">
    <style
       id="current-color-scheme"
       type="text/css">.ColorScheme-Text { color:#dedede; } .ColorScheme-Highlight { color:#5294e2; } .ColorScheme-ButtonBackground { color:#dedede; }</style>
  </defs>
  <g
     id="preferences-desktop-notification"
     transform="translate(25 -39.788)">
    <rect
       id="rect3068"
       y="40"
       width="22"
       height="22"
       opacity="0" />
    <path
       id="path4238"
       class="ColorScheme-Highlight"
       d="m11 41.788c-4.9706 0-9 4.0294-9 9s4.0294 9 9 9 9-4.0294 9-9-4.0294-9-9-9z"
       color="#5294e2"
       fill="currentColor"
       inkscape:connector-curvature="0"
       style="fill:#46dcdc;fill-opacity:1" />
    <path
       id="path4173-0"
       class="ColorScheme-Text"
       d="m10 46.788v6h2v-6zm1 7c-0.45315 0-1 0.51843-1 0.98047s0.54685 1.0195 1 1.0195 1-0.55749 1-1.0195c0-0.46204-0.54685-0.98047-1-0.98047z"
       color="#dedede"
       fill="#fff"
       inkscape:connector-curvature="0" />
  </g>
  <g
     id="preferences-system-bluetooth"
     transform="translate(115,-56)">
    <g
       id="g1902"
       transform="translate(101.625,37)">
      <path
         style="opacity:0.3;fill:#46dcdc;fill-opacity:1;stroke:none;stroke-width:0.5;stroke-linecap:butt;stroke-linejoin:miter;stroke-miterlimit:4;stroke-dasharray:none;stroke-opacity:1"
         d="m -203.625,54 c 0,0 -4,-4 -6,-4 0,0 -1.37619,1 0,5 0,0 -2,0 -3,1 0,0 -1,-6 1,-9 0,0 5.43666,0 8,7 z"
         id="path1886" />
      <path
         style="opacity:0.3;fill:#46dcdc;fill-opacity:1;stroke:none;stroke-width:1px;stroke-linecap:butt;stroke-linejoin:miter;stroke-opacity:1"
         d="m -206.625,59 c 0,0 -1,2 -3,2 0,0 6.31366,5 11,6 0,0 -4.61921,-4.817207 -4,-8.408604 0,0 -1.3659,1.408604 -1,3.408604 0,0 -3,-1.451414 -3,-3 z"
         id="path1888" />
      <circle
         style="opacity:0.3;fill:#46dcdc;fill-opacity:1;stroke:none;stroke-width:0.333333;stroke-linecap:round;stroke-miterlimit:4;stroke-dasharray:none;paint-order:stroke fill markers"
         id="path1890"
         cx="-209.66437"
         cy="58"
         r="2" />
      <path
         id="rect1893"
         style="fill:#46dcdc;fill-opacity:1;stroke:none;stroke-width:0.57735;stroke-linecap:round;stroke-miterlimit:4;stroke-dasharray:none;paint-order:stroke fill markers"
         d="m 74.691406,11 a 2,2 0 0 1 0.269532,1 H 82.625 v -1 z"
         transform="translate(-282.625,46)" />
      <circle
         style="fill:#46dcdc;fill-opacity:1;stroke:none;stroke-width:0.5;stroke-linecap:round;stroke-miterlimit:4;stroke-dasharray:none;paint-order:stroke fill markers"
         id="path1895"
         cx="-199.5"
         cy="57.5"
         r="1.5" />
    </g>
    <rect
       y="83"
       x="-115"
       height="22"
       width="22"
       id="rect2175"
       style="fill:none;fill-opacity:1;stroke:none" />
  </g>
  <g
     id="preferences-system-bluetooth-activated"
     transform="translate(115,-34)">
    <g
       id="g2229"
       transform="translate(101.625,37)">
      <path
         style="opacity:1;fill:#46dcdc;fill-opacity:1;stroke:none;stroke-width:0.5;stroke-linecap:butt;stroke-linejoin:miter;stroke-miterlimit:4;stroke-dasharray:none;stroke-opacity:1"
         d="m -203.625,54 c 0,0 -4,-4 -6,-4 0,0 -1.37619,1 0,5 0,0 -2,0 -3,1 0,0 -1,-6 1,-9 0,0 5.43666,0 8,7 z"
         id="path2219" />
      <path
         style="opacity:1;fill:#46dcdc;fill-opacity:1;stroke:none;stroke-width:1px;stroke-linecap:butt;stroke-linejoin:miter;stroke-opacity:1"
         d="m -206.625,59 c 0,0 -1,2 -3,2 0,0 6.31366,5 11,6 0,0 -4.61921,-4.817207 -4,-8.408604 0,0 -1.3659,1.408604 -1,3.408604 0,0 -3,-1.451414 -3,-3 z"
         id="path2221" />
      <circle
         style="opacity:1;fill:#46dcdc;fill-opacity:1;stroke:none;stroke-width:0.333333;stroke-linecap:round;stroke-miterlimit:4;stroke-dasharray:none;paint-order:stroke fill markers"
         id="circle2223"
         cx="-209.66437"
         cy="58"
         r="2" />
      <path
         id="path2225"
         style="fill:#46dcdc;fill-opacity:1;stroke:none;stroke-width:0.57735;stroke-linecap:round;stroke-miterlimit:4;stroke-dasharray:none;paint-order:stroke fill markers"
         d="m 74.691406,11 a 2,2 0 0 1 0.269532,1 H 82.625 v -1 z"
         transform="translate(-282.625,46)" />
      <circle
         style="fill:#46dcdc;fill-opacity:1;stroke:none;stroke-width:0.5;stroke-linecap:round;stroke-miterlimit:4;stroke-dasharray:none;paint-order:stroke fill markers"
         id="circle2227"
         cx="-199.5"
         cy="57.5"
         r="1.5" />
    </g>
    <rect
       y="83"
       x="-115"
       height="22"
       width="22"
       id="rect2231"
       style="fill:none;fill-opacity:1;stroke:none" />
  </g>
  <g
     id="preferences-system-bluetooth-inactive"
     transform="translate(115,-12)">
    <g
       id="g898"
       transform="translate(101.625,37)">
      <path
         style="opacity:0.3;fill:#46dcdc;fill-opacity:1;stroke:none;stroke-width:0.5;stroke-linecap:butt;stroke-linejoin:miter;stroke-miterlimit:4;stroke-dasharray:none;stroke-opacity:1"
         d="m -203.625,54 c 0,0 -4,-4 -6,-4 0,0 -1.37619,1 0,5 0,0 -2,0 -3,1 0,0 -1,-6 1,-9 0,0 5.43666,0 8,7 z"
         id="path888" />
      <path
         style="opacity:0.3;fill:#46dcdc;fill-opacity:1;stroke:none;stroke-width:1px;stroke-linecap:butt;stroke-linejoin:miter;stroke-opacity:1"
         d="m -206.625,59 c 0,0 -1,2 -3,2 0,0 6.31366,5 11,6 0,0 -4.61921,-4.817207 -4,-8.408604 0,0 -1.3659,1.408604 -1,3.408604 0,0 -3,-1.451414 -3,-3 z"
         id="path890" />
      <circle
         style="opacity:0.3;fill:#46dcdc;fill-opacity:1;stroke:none;stroke-width:0.333333;stroke-linecap:round;stroke-miterlimit:4;stroke-dasharray:none;paint-order:stroke fill markers"
         id="circle892"
         cx="-209.66437"
         cy="58"
         r="2" />
      <path
         id="path894"
         style="opacity:0.3;fill:#46dcdc;fill-opacity:1;stroke:none;stroke-width:0.57735;stroke-linecap:round;stroke-miterlimit:4;stroke-dasharray:none;paint-order:stroke fill markers"
         d="m -14.308594,82 a 2,2 0 0 1 0.269532,1 h 6.7519526 A 1.5,1.5 0 0 1 -7.375,82.5 1.5,1.5 0 0 1 -7.2890625,82 Z"
         transform="translate(-193.625,-25)" />
      <circle
         style="opacity:0.3;fill:#46dcdc;fill-opacity:1;stroke:none;stroke-width:0.5;stroke-linecap:round;stroke-miterlimit:4;stroke-dasharray:none;paint-order:stroke fill markers"
         id="circle896"
         cx="-199.5"
         cy="57.5"
         r="1.5" />
    </g>
    <rect
       y="83"
       x="-115"
       height="22"
       width="22"
       id="rect900"
       style="fill:none;fill-opacity:1;stroke:none" />
  </g>
  <g
     id="16-16-preferences-system-bluetooth">
    <rect
       ry="0.28211999"
       y="29"
       x="24.950001"
       height="16"
       width="16"
       id="rect841"
       style="opacity:0;fill:#000000;fill-opacity:1;stroke:none;stroke-width:1.43545;stroke-linecap:round;stroke-linejoin:round;stroke-miterlimit:4;stroke-dasharray:none;stroke-opacity:1;paint-order:stroke fill markers" />
    <g
       id="g918"
       transform="matrix(0.8,0,0,0.8,197.3,-8.6)">
      <path
         style="opacity:0.3;fill:#46dcdc;fill-opacity:1;stroke:none;stroke-width:0.5;stroke-linecap:butt;stroke-linejoin:miter;stroke-miterlimit:4;stroke-dasharray:none;stroke-opacity:1"
         d="m -203.625,54 c 0,0 -4,-4 -6,-4 0,0 -1.37619,1 0,5 0,0 -2,0 -3,1 0,0 -1,-6 1,-9 0,0 5.43666,0 8,7 z"
         id="path908" />
      <path
         style="opacity:0.3;fill:#46dcdc;fill-opacity:1;stroke:none;stroke-width:1px;stroke-linecap:butt;stroke-linejoin:miter;stroke-opacity:1"
         d="m -206.625,59 c 0,0 -1,2 -3,2 0,0 6.31366,5 11,6 0,0 -4.61921,-4.817207 -4,-8.408604 0,0 -1.3659,1.408604 -1,3.408604 0,0 -3,-1.451414 -3,-3 z"
         id="path910" />
      <circle
         style="opacity:0.3;fill:#46dcdc;fill-opacity:1;stroke:none;stroke-width:0.333333;stroke-linecap:round;stroke-miterlimit:4;stroke-dasharray:none;paint-order:stroke fill markers"
         id="circle912"
         cx="-209.66437"
         cy="58"
         r="2" />
      <path
         id="path914"
         style="fill:#46dcdc;fill-opacity:1;stroke:none;stroke-width:0.57735;stroke-linecap:round;stroke-miterlimit:4;stroke-dasharray:none;paint-order:stroke fill markers"
         d="m 74.691406,11 a 2,2 0 0 1 0.269532,1 H 82.625 v -1 z"
         transform="translate(-282.625,46)" />
      <circle
         style="fill:#46dcdc;fill-opacity:1;stroke:none;stroke-width:0.5;stroke-linecap:round;stroke-miterlimit:4;stroke-dasharray:none;paint-order:stroke fill markers"
         id="circle916"
         cx="-199.5"
         cy="57.5"
         r="1.5" />
    </g>
  </g>
  <g
     id="16-16-preferences-system-bluetooth-activated"
     transform="translate(0,25)">
    <rect
       ry="0.28211999"
       y="29"
       x="24.950001"
       height="16"
       width="16"
       id="rect981"
       style="opacity:0;fill:#000000;fill-opacity:1;stroke:none;stroke-width:1.43545;stroke-linecap:round;stroke-linejoin:round;stroke-miterlimit:4;stroke-dasharray:none;stroke-opacity:1;paint-order:stroke fill markers" />
    <g
       id="g993"
       transform="matrix(0.8,0,0,0.8,197.3,-8.6)">
      <path
         style="opacity:1;fill:#46dcdc;fill-opacity:1;stroke:none;stroke-width:0.5;stroke-linecap:butt;stroke-linejoin:miter;stroke-miterlimit:4;stroke-dasharray:none;stroke-opacity:1"
         d="m -203.625,54 c 0,0 -4,-4 -6,-4 0,0 -1.37619,1 0,5 0,0 -2,0 -3,1 0,0 -1,-6 1,-9 0,0 5.43666,0 8,7 z"
         id="path983" />
      <path
         style="opacity:1;fill:#46dcdc;fill-opacity:1;stroke:none;stroke-width:1px;stroke-linecap:butt;stroke-linejoin:miter;stroke-opacity:1"
         d="m -206.625,59 c 0,0 -1,2 -3,2 0,0 6.31366,5 11,6 0,0 -4.61921,-4.817207 -4,-8.408604 0,0 -1.3659,1.408604 -1,3.408604 0,0 -3,-1.451414 -3,-3 z"
         id="path985" />
      <circle
         style="opacity:1;fill:#46dcdc;fill-opacity:1;stroke:none;stroke-width:0.333333;stroke-linecap:round;stroke-miterlimit:4;stroke-dasharray:none;paint-order:stroke fill markers"
         id="circle987"
         cx="-209.66437"
         cy="58"
         r="2" />
      <path
         id="path989"
         style="fill:#46dcdc;fill-opacity:1;stroke:none;stroke-width:0.57735;stroke-linecap:round;stroke-miterlimit:4;stroke-dasharray:none;paint-order:stroke fill markers"
         d="m 74.691406,11 a 2,2 0 0 1 0.269532,1 H 82.625 v -1 z"
         transform="translate(-282.625,46)" />
      <circle
         style="fill:#46dcdc;fill-opacity:1;stroke:none;stroke-width:0.5;stroke-linecap:round;stroke-miterlimit:4;stroke-dasharray:none;paint-order:stroke fill markers"
         id="circle991"
         cx="-199.5"
         cy="57.5"
         r="1.5" />
    </g>
  </g>
  <g
     id="16-16-preferences-system-bluetooth-inactive"
     transform="translate(0,47)">
    <rect
       ry="0.28211999"
       y="29"
       x="24.950001"
       height="16"
       width="16"
       id="rect997"
       style="opacity:0;fill:#000000;fill-opacity:1;stroke:none;stroke-width:1.43545;stroke-linecap:round;stroke-linejoin:round;stroke-miterlimit:4;stroke-dasharray:none;stroke-opacity:1;paint-order:stroke fill markers" />
    <g
       id="g1009"
       transform="matrix(0.8,0,0,0.8,197.3,-8.6)">
      <path
         style="opacity:0.3;fill:#46dcdc;fill-opacity:1;stroke:none;stroke-width:0.5;stroke-linecap:butt;stroke-linejoin:miter;stroke-miterlimit:4;stroke-dasharray:none;stroke-opacity:1"
         d="m -203.625,54 c 0,0 -4,-4 -6,-4 0,0 -1.37619,1 0,5 0,0 -2,0 -3,1 0,0 -1,-6 1,-9 0,0 5.43666,0 8,7 z"
         id="path999" />
      <path
         style="opacity:0.3;fill:#46dcdc;fill-opacity:1;stroke:none;stroke-width:1px;stroke-linecap:butt;stroke-linejoin:miter;stroke-opacity:1"
         d="m -206.625,59 c 0,0 -1,2 -3,2 0,0 6.31366,5 11,6 0,0 -4.61921,-4.817207 -4,-8.408604 0,0 -1.3659,1.408604 -1,3.408604 0,0 -3,-1.451414 -3,-3 z"
         id="path1001" />
      <circle
         style="opacity:0.3;fill:#46dcdc;fill-opacity:1;stroke:none;stroke-width:0.333333;stroke-linecap:round;stroke-miterlimit:4;stroke-dasharray:none;paint-order:stroke fill markers"
         id="circle1003"
         cx="-209.66437"
         cy="58"
         r="2" />
      <path
         id="path1005"
         style="opacity:0.3;fill:#46dcdc;fill-opacity:1;stroke:none;stroke-width:0.46188;stroke-linecap:round;stroke-miterlimit:4;stroke-dasharray:none;paint-order:stroke fill markers"
         d="M 30.953125 84 A 1.6 1.6 0 0 1 31.167969 84.800781 L 36.570312 84.800781 A 1.2 1.2 0 0 1 36.5 84.400391 A 1.2 1.2 0 0 1 36.570312 84 L 30.953125 84 z "
         transform="matrix(1.25,0,0,1.25,-246.625,-48)" />
      <circle
         style="fill:#46dcdc;fill-opacity:1;stroke:none;stroke-width:0.5;stroke-linecap:round;stroke-miterlimit:4;stroke-dasharray:none;paint-order:stroke fill markers;opacity:0.3"
         id="circle1007"
         cx="-199.5"
         cy="57.5"
         r="1.5" />
    </g>
  </g>
  <rect
     x="-32"
     y="-1.4901161e-06"
     width="32"
     height="32"
     rx="0"
     ry="0"
     style="opacity:0;stroke-width:2;paint-order:fill markers stroke"
     id="rect1046" />
  <g
     id="preferences-desktop-display-randr">
    <rect
       id="rect23"
       transform="scale(-1,1)"
       x="-22"
       width="22"
       height="22"
       color="#bebebe"
       opacity="0"
       stroke-width="2"
       y="0" />
    <g
       id="g1055"
       transform="translate(30)">
      <path
         id="path905"
         style="fill:#46dcdc;fill-opacity:1;stroke:none;stroke-width:1px;stroke-linecap:butt;stroke-linejoin:miter;stroke-opacity:1"
         d="m -29.006786,4 -1.4e-5,14 H -16 L -8.9932144,11 -9,4 Z m 1,1 H -10 l 0.00679,5.478516 L -16.4668,17 h -11.539986 z"
         sodipodi:nodetypes="cccccccccccc" />
      <rect
         style="fill:#46dcdc;fill-opacity:1;stroke:none;stroke-width:2.73861;stroke-linecap:round;stroke-linejoin:round;paint-order:stroke fill markers"
         id="rect907"
         width="1"
         height="10"
         x="-27"
         y="6" />
      <path
         id="path913"
         style="fill:#46dcdc;fill-opacity:1;stroke:none;stroke-width:11.6189;stroke-linecap:round;stroke-linejoin:round;paint-order:stroke fill markers"
         d="m -25,6 h 14.006786 L -20,16 h -5.006786 z"
         sodipodi:nodetypes="ccccc" />
    </g>
  </g>
</svg>
