<?xml version="1.0" encoding="UTF-8" standalone="no"?>
<svg
   xmlns:dc="http://purl.org/dc/elements/1.1/"
   xmlns:cc="http://creativecommons.org/ns#"
   xmlns:rdf="http://www.w3.org/1999/02/22-rdf-syntax-ns#"
   xmlns:svg="http://www.w3.org/2000/svg"
   xmlns="http://www.w3.org/2000/svg"
   xmlns:sodipodi="http://sodipodi.sourceforge.net/DTD/sodipodi-0.dtd"
   xmlns:inkscape="http://www.inkscape.org/namespaces/inkscape"
   width="124"
   height="52"
   version="1.1"
   viewBox="0 0 32.808 13.758"
   id="svg133"
   sodipodi:docname="configuration-icons.svg"
   inkscape:version="1.0.2 (e86c870879, 2021-01-15)">
  <metadata
     id="metadata137">
    <rdf:RDF>
      <cc:Work
         rdf:about="">
        <dc:format>image/svg+xml</dc:format>
        <dc:type
           rdf:resource="http://purl.org/dc/dcmitype/StillImage" />
        <dc:title />
      </cc:Work>
    </rdf:RDF>
  </metadata>
  <sodipodi:namedview
     pagecolor="#c8c8c8"
     bordercolor="#666666"
     borderopacity="1"
     objecttolerance="10"
     gridtolerance="10"
     guidetolerance="10"
     inkscape:pageopacity="0"
     inkscape:pageshadow="2"
     inkscape:window-width="1920"
     inkscape:window-height="992"
     id="namedview135"
     showgrid="true"
     inkscape:zoom="16"
     inkscape:cx="33.856607"
     inkscape:cy="0.27397078"
     inkscape:window-x="0"
     inkscape:window-y="0"
     inkscape:window-maximized="1"
     inkscape:current-layer="svg133"
     inkscape:snap-bbox="true"
     inkscape:bbox-nodes="true"
     inkscape:snap-bbox-edge-midpoints="true"
     inkscape:document-rotation="0"
     showguides="false">
    <inkscape:grid
       type="xygrid"
       id="grid944" />
  </sodipodi:namedview>
  <defs
     id="defs3">
    <style
       id="current-color-scheme"
       type="text/css">.ColorScheme-Text {
        color:#31363b;
        stop-color:#31363b;
      }
      .ColorScheme-Background {
        color:#eff0f1;
        stop-color:#eff0f1;
      }
      .ColorScheme-Highlight {
        color:#3daee9;
        stop-color:#3daee9;
      }
      .ColorScheme-ViewText {
        color:#31363b;
        stop-color:#31363b;
      }
      .ColorScheme-ViewBackground {
        color:#fcfcfc;
        stop-color:#fcfcfc;
      }
      .ColorScheme-ViewHover {
        color:#93cee9;
        stop-color:#93cee9;
      }
      .ColorScheme-ViewFocus{
        color:#3daee9;
        stop-color:#3daee9;
      }
      .ColorScheme-ButtonText {
        color:#31363b;
        stop-color:#31363b;
      }
      .ColorScheme-ButtonBackground {
        color:#eff0f1;
        stop-color:#eff0f1;
      }
      .ColorScheme-ButtonHover {
        color:#93cee9;
        stop-color:#93cee9;
      }
      .ColorScheme-ButtonFocus{
        color:#3daee9;
        stop-color:#3daee9;
      }</style>
  </defs>
  <g
     transform="translate(0.52648452,-249.37214)"
     id="help">
    <rect
       style="opacity:0"
       id="rect115"
       height="4.2329998"
       width="4.2329998"
       y="258.89999"
       x="-0.52999997" />
    <g
       id="g119"
       transform="matrix(0.26458,0,0,0.26458,-118,149.89)">
      <path
         style="fill:#eaeaea;fill-opacity:1"
         inkscape:connector-curvature="0"
         id="path117"
         d="m 453,427 h -2 v -2 h 2 z m 2.07,-7.75 -0.9,0.92 C 453.45,420.9 453,421.5 453,423 h -2 v -0.5 c 0,-1.1 0.45,-2.1 1.17,-2.83 l 1.24,-1.26 c 0.37,-0.36 0.59,-0.86 0.59,-1.41 0,-1.1 -0.9,-2 -2,-2 -1.1,0 -2,0.9 -2,2 h -2 c 0,-2.21 1.79,-4 4,-4 2.21,0 4,1.79 4,4 0,0.88 -0.36,1.68 -0.93,2.25 z" />
    </g>
  </g>
  <g
     transform="matrix(0.99998978,0,0,0.99998978,0.52916235,-249.37253)"
     id="size-diagonal-tr2bl">
    <rect
       style="opacity:1;fill:none;fill-opacity:1;stroke:none"
       id="rect4271"
       width="4.2333336"
       height="4.2333322"
       x="28.045832"
       y="249.37497" />
    <rect
       y="249.90414"
       x="28.574999"
       height="3.1749992"
       width="3.1750002"
       id="rect4273"
       style="opacity:1;fill:none;fill-opacity:1;stroke:none" />
    <path
       class="ColorScheme-Text"
       style="color:#31363b;fill:#eaeaea;fill-opacity:1;stroke:none"
       d="m 29.368751,253.07915 v -0.26458 h -0.606682 l 0.871265,-0.87127 -0.187068,-0.18706 -0.871265,0.87126 v -0.60668 h -0.264584 v 1.05833 h 0.264584 z"
       id="rect3354"
       inkscape:connector-curvature="0" />
    <path
       class="ColorScheme-Text"
       style="color:#31363b;fill:#eaeaea;fill-opacity:1;stroke:none"
       d="m 109,2 v 1 1 3 1 h 1 V 7 4 3 h 1 4 2 V 2 h -2 -4 -1 z m 13,6 v 1 3 1 h -2 -3 -2 v 1 h 2 3 2 1 V 12 9 8 Z"
       transform="matrix(0.26458334,0,0,0.26458334,-0.52916664,249.37498)"
       id="rect3378"
       inkscape:connector-curvature="0" />
    <path
       class="ColorScheme-Text"
       inkscape:connector-curvature="0"
       id="path4303"
       d="m 30.95625,249.90415 v 0.26458 h 0.606682 L 30.691667,251.04 30.878735,251.22706 31.75,250.3558 v 0.60668 h 0.264584 v -1.05833 H 31.75 Z"
       style="color:#31363b;fill:#eaeaea;fill-opacity:1;stroke:none" />
  </g>
  <g
     transform="matrix(0.99998978,0,0,0.99998978,0.52916034,-249.63704)"
     id="size-diagonal-tl2br">
    <rect
       y="254.13741"
       x="-0.52916676"
       height="4.2333322"
       width="4.2333336"
       id="rect4308"
       style="opacity:1;fill:none;fill-opacity:1;stroke:none" />
    <rect
       style="opacity:1;fill:none;fill-opacity:1;stroke:none"
       id="rect4310"
       width="3.1750002"
       height="3.1749992"
       x="8.4756147e-07"
       y="254.66658" />
    <path
       class="ColorScheme-Text"
       inkscape:connector-curvature="0"
       id="path4312"
       d="m 2.3812496,257.84168 v -0.26458 h 0.6066819 l -0.8712649,-0.87127 0.187068,-0.18706 0.8712649,0.87126 v -0.60668 h 0.264584 v 1.05833 h -0.264584 z"
       style="color:#31363b;fill:#eaeaea;fill-opacity:1;stroke:none" />
    <path
       class="ColorScheme-Text"
       inkscape:connector-curvature="0"
       id="path4314"
       d="m 3.4395835,254.66667 v 0.26459 0.26458 0.79375 0.26458 h -0.264584 v -0.26458 -0.79375 -0.26458 H 2.9104166 1.8520836 1.3229166 v -0.26459 h 0.529167 1.058333 0.2645829 z M -4e-7,256.25417 v 0.26459 0.79375 0.26458 h 0.529167 0.79375 0.529167 v 0.26458 H 1.3229166 0.5291666 -4e-7 -0.2645834 v -0.52916 -0.79375 -0.26459 z"
       style="color:#31363b;fill:#eaeaea;fill-opacity:1;stroke:none" />
    <path
       class="ColorScheme-Text"
       style="color:#31363b;fill:#eaeaea;fill-opacity:1;stroke:none"
       d="m 0.7937506,254.66668 v 0.26458 h -0.606682 l 0.871265,0.87127 -0.187068,0.18706 L 6e-7,255.11833 v 0.60668 h -0.264584 v -1.05833 H 6e-7 Z"
       id="path4316"
       inkscape:connector-curvature="0" />
  </g>
  <g
     transform="matrix(0.99998978,0,0,0.99998978,-4.7727843e-7,-249.63713)"
     id="maximize">
    <rect
       style="opacity:1;fill:none;fill-opacity:1;stroke:none"
       id="rect4318"
       width="4.2333336"
       height="4.2333322"
       x="4.2333331"
       y="254.13741" />
    <rect
       y="254.66658"
       x="4.7625008"
       height="3.1749992"
       width="3.1750002"
       id="rect4320"
       style="opacity:1;fill:none;fill-opacity:1;stroke:none" />
    <path
       class="ColorScheme-Text"
       style="color:#31363b;fill:#eaeaea;fill-opacity:1;stroke:none"
       d="m 7.1437499,254.66667 v 0.26458 h 0.6066819 l -0.8712649,0.87127 0.187068,0.18706 0.8712649,-0.87126 v 0.60668 h 0.264584 v -1.05833 h -0.264584 z"
       id="path4322"
       inkscape:connector-curvature="0" />
    <path
       class="ColorScheme-Text"
       inkscape:connector-curvature="0"
       style="color:#31363b;fill:#eaeaea;fill-opacity:1;stroke:none"
       d="m 19,20 v 2 3 1 5 1 h 1 5 2 4 1 1 v -1 -1 -3 -1 h -1 v 1 3 1 h -1 -4 -2 -5 v -5 -1 -3 -1 h 2 3 2 v -1 h -2 -3 -2 z"
       transform="matrix(0.26458333,0,0,0.26458334,-0.52916771,249.37497)"
       id="path4324" />
  </g>
  <g
     transform="matrix(0.99998978,0,0,0.99998978,-0.52916034,-249.63704)"
     id="unmaximize">
    <rect
       y="254.13741"
       x="8.9958324"
       height="4.2333322"
       width="4.2333336"
       id="rect4333"
       style="opacity:1;fill:none;fill-opacity:1;stroke:none" />
    <rect
       style="opacity:1;fill:none;fill-opacity:1;stroke:none"
       id="rect4335"
       width="3.1750002"
       height="3.1749992"
       x="9.5249996"
       y="254.66658" />
    <path
       class="ColorScheme-Text"
       inkscape:connector-curvature="0"
       id="path4337"
       d="M 12.700003,255.98958 V 255.725 h -0.606682 l 0.871265,-0.87127 -0.187068,-0.18706 -0.871266,0.87126 v -0.60668 h -0.264584 v 1.05833 h 0.264584 z"
       style="color:#31363b;fill:#eaeaea;fill-opacity:1;stroke:none" />
    <path
       class="ColorScheme-Text"
       id="path4339"
       d="m 9.2604158,254.66664 v 0.52916 0.79375 0.26459 1.32291 0.26459 h 0.2645833 1.3229169 0.529167 1.058334 0.264584 0.264583 v -0.26459 -0.26458 -0.79375 -0.26458 h -0.264583 v 0.26458 0.79375 0.26458 H 12.435417 11.377083 10.847916 9.5249991 v -1.32291 -0.26459 -0.79375 -0.26458 h 0.5291669 0.79375 0.529167 v -0.26458 h -0.529167 -0.79375 -0.5291669 z"
       style="color:#31363b;fill:#eaeaea;fill-opacity:1;stroke:none"
       inkscape:connector-curvature="0" />
  </g>
  <g
     transform="matrix(0.99999012,0,0,0.99999012,-0.26458526,-249.37263)"
     id="filter-6">
    <rect
       style="opacity:1;fill:none;fill-opacity:1;stroke:none"
       id="rect4527"
       width="4.2333336"
       height="4.2333322"
       x="18.520828"
       y="258.89993" />
    <rect
       y="259.42911"
       x="19.049997"
       height="3.1749992"
       width="3.1750002"
       id="rect4529"
       style="opacity:1;fill:none;fill-opacity:1;stroke:none" />
    <path
       class="ColorScheme-Text"
       inkscape:connector-curvature="0"
       style="color:#31363b;fill:#eaeaea;fill-opacity:1;fill-rule:evenodd;stroke:none;stroke-width:0.26458299px;stroke-linecap:butt;stroke-linejoin:miter;stroke-opacity:1"
       d="m 76,38 -1,1 v 1 l 3,5.259766 V 48 48.002 l 3,1.996094 v 0.002 h 1 V 49.461032 45.25986 L 85,40 v -1 l -1,-1 z m 0,1 h 8 v 0.734375 l -3,5.263672 v 0.002 1 2.794922 L 79,47.464844 V 45 44.998 l -3,-5.263672 z m 1,1 2,2 v -1 l 1,-1 z"
       transform="matrix(0.26458333,0,0,0.26458334,-0.52916771,249.37497)"
       id="path4545" />
  </g>
  <g
     transform="matrix(0.99999012,0,0,0.99999012,-0.79375283,-249.37258)"
     id="close">
    <rect
       style="opacity:1;fill:none;fill-opacity:1;stroke:none"
       id="rect4253"
       width="4.2333336"
       height="4.2333322"
       x="23.283339"
       y="258.89993" />
    <rect
       y="259.42911"
       x="23.812508"
       height="3.1749992"
       width="3.1750002"
       id="rect4255"
       style="opacity:1;fill:none;fill-opacity:1;stroke:none" />
    <circle
       class="ColorScheme-Background"
       style="color:#eff0f1;opacity:1;fill:currentColor;fill-opacity:1;stroke:none"
       id="path4139"
       cx="25.400003"
       cy="261.0166"
       r="1.0583333" />
    <path
       style="opacity:1;fill:#da4453;fill-opacity:1;stroke:none"
       d="m 25.400004,259.42911 a 1.5875,1.5875 0 0 0 -1.5875,1.5875 1.5875,1.5875 0 0 0 1.5875,1.5875 1.5875,1.5875 0 0 0 1.5875,-1.5875 1.5875,1.5875 0 0 0 -1.5875,-1.5875 z m -0.606682,0.79375 0.606682,0.60668 0.606681,-0.60668 0.187069,0.18707 -0.606682,0.60668 0.606682,0.60668 -0.187069,0.18707 -0.606681,-0.60668 -0.606682,0.60668 -0.187068,-0.18707 0.606681,-0.60668 -0.606681,-0.60668 z"
       id="path4142"
       inkscape:connector-curvature="0" />
  </g>
  <g
     id="menu">
    <rect
       style="fill:none"
       id="rect5"
       height="4.2333002"
       width="4.2333002"
       y="-4.8828124e-06"
       x="2.3288727e-08" />
    <g
       id="g1202">
      <rect
         style="opacity:1;fill:#eaeaea;fill-opacity:1;stroke:none;stroke-width:0.26458064;stroke-linecap:round;stroke-miterlimit:4;stroke-dasharray:none;stroke-opacity:1"
         id="rect1193"
         width="3.1749589"
         height="0.2582258"
         x="0.5291701"
         y="1.0582258"
         ry="0" />
      <rect
         ry="0"
         y="2.1165483"
         x="0.5291701"
         height="0.2582258"
         width="3.1749589"
         id="rect1195"
         style="opacity:1;fill:#eaeaea;fill-opacity:1;stroke:none;stroke-width:0.26458064;stroke-linecap:round;stroke-miterlimit:4;stroke-dasharray:none;stroke-opacity:1" />
      <rect
         style="opacity:1;fill:#eaeaea;fill-opacity:1;stroke:none;stroke-width:0.26458064;stroke-linecap:round;stroke-miterlimit:4;stroke-dasharray:none;stroke-opacity:1"
         id="rect1197"
         width="3.1749589"
         height="0.2582258"
         x="0.5291701"
         y="3.1685159"
         ry="0" />
    </g>
  </g>
  <g
     id="delete"
     transform="matrix(0.99998978,0,0,0.99998978,0.52916387,-249.37248)">
    <rect
       style="opacity:1;fill:none;fill-opacity:1;stroke:none"
       id="rect1214"
       width="4.2333336"
       height="4.2333322"
       x="4.2333331"
       y="258.89993" />
    <rect
       y="259.42911"
       x="4.7625008"
       height="3.1749992"
       width="3.1750002"
       id="rect1216"
       style="opacity:1;fill:none;fill-opacity:1;stroke:none" />
    <path
       id="path1218"
       d="m 5.5562478,259.42911 v 0.52916 h 0.2645834 v -0.26458 h 1.0583333 v 0.26458 h 0.2645833 v -0.52916 H 6.8791645 5.8208312 Z m -0.7937499,0.79375 v 0.26458 h 0.5291666 v 1.85208 0.26459 h 2.1166667 v -0.26459 -1.85208 h 0.5291666 v -0.26458 z m 0.7937499,0.26458 h 1.5875 v 1.85208 h -1.5875 z"
       style="opacity:1;fill:#da4453;fill-opacity:1;stroke:none;stroke-width:1;stroke-linecap:round;stroke-miterlimit:4;stroke-dasharray:none;stroke-opacity:1"
       inkscape:connector-curvature="0" />
  </g>
  <g
     id="remove">
    <rect
       style="color:#bebebe;fill:none;stroke-width:0.26458001"
       id="rect103"
       height="4.2332802"
       width="4.2332802"
       y="9.5247564"
       x="14.022888" />
    <rect
       style="opacity:1;fill:#eaeaea;fill-opacity:1;stroke:none;stroke-width:0.26458064;stroke-linecap:round;stroke-miterlimit:4;stroke-dasharray:none;stroke-opacity:1"
       id="rect1227"
       width="3.1749678"
       height="0.26458064"
       x="14.551935"
       y="11.376871"
       ry="0" />
  </g>
  <g
     id="add">
    <rect
       style="color:#bebebe;fill:none;stroke-width:0.26458001"
       id="rect98"
       height="4.2332802"
       width="4.2332802"
       y="9.5248098"
       x="9.7892504" />
    <g
       id="g1241">
      <rect
         style="opacity:1;fill:#eaeaea;fill-opacity:1;stroke:none;stroke-width:0.26458064;stroke-linecap:round;stroke-miterlimit:4;stroke-dasharray:none;stroke-opacity:1"
         id="rect1225"
         width="3.1749678"
         height="0.26458064"
         x="10.318645"
         y="11.376871"
         ry="0" />
      <rect
         ry="0"
         y="11.773838"
         x="-13.096645"
         height="0.26458064"
         width="3.1749678"
         id="rect1229"
         style="opacity:1;fill:#eaeaea;fill-opacity:1;stroke:none;stroke-width:0.26458064;stroke-linecap:round;stroke-miterlimit:4;stroke-dasharray:none;stroke-opacity:1"
         transform="rotate(-90)" />
    </g>
  </g>
  <g
     id="status">
    <rect
       style="color:#bebebe;opacity:0;stroke-width:0.79373997;enable-background:accumulate"
       id="rect86"
       height="4.2332802"
       width="4.2332802"
       y="-8.7310543"
       x="-18.785225"
       transform="scale(-1)" />
    <g
       transform="translate(3.8736084e-6,8.9957368)"
       id="g1276">
      <path
         inkscape:connector-curvature="0"
         style="opacity:1;fill:#eaeaea;fill-opacity:1;stroke:none;stroke-width:0.99999994;stroke-linecap:round;stroke-miterlimit:4;stroke-dasharray:none;stroke-opacity:1"
         d="m 56,-16 v 14 h 14 v -14 z m 1,1 H 69 V -3 H 57 Z"
         transform="matrix(0.26458065,0,0,0.26458065,0,-9.6774194e-5)"
         id="rect1259" />
      <rect
         style="opacity:1;fill:#eaeaea;fill-opacity:1;stroke:none;stroke-width:0.26458064;stroke-linecap:round;stroke-miterlimit:4;stroke-dasharray:none;stroke-opacity:1"
         id="rect1266"
         width="2.1166451"
         height="0.26458064"
         x="15.610258"
         y="-1.323"
         ry="0" />
      <rect
         ry="0"
         y="-1.8521612"
         x="15.610258"
         height="0.26458064"
         width="2.1166451"
         id="rect1268"
         style="opacity:1;fill:#eaeaea;fill-opacity:1;stroke:none;stroke-width:0.26458064;stroke-linecap:round;stroke-miterlimit:4;stroke-dasharray:none;stroke-opacity:1" />
      <rect
         style="opacity:1;fill:#eaeaea;fill-opacity:1;stroke:none;stroke-width:0.26458064;stroke-linecap:round;stroke-miterlimit:4;stroke-dasharray:none;stroke-opacity:1"
         id="rect1270"
         width="2.1166451"
         height="0.26458064"
         x="15.610258"
         y="-2.3813224"
         ry="0" />
    </g>
  </g>
  <g
     id="return-to-source">
    <rect
       style="fill:none"
       id="rect19"
       height="4.2333002"
       width="4.2333002"
       y="4.4977741"
       x="19.049807" />
    <g
       transform="translate(-0.2645758,8.9957469)"
       id="g1328">
      <path
         id="path1264"
         d="m 19.578968,-4.2333872 v 3.70412913 h 3.704129 V -4.2333872 Z m 0.26458,0.2645807 h 3.174968 v 3.17496778 h -3.174968 z"
         style="opacity:1;fill:#eaeaea;fill-opacity:1;stroke:none;stroke-width:0.26458064;stroke-linecap:round;stroke-miterlimit:4;stroke-dasharray:none;stroke-opacity:1"
         inkscape:connector-curvature="0" />
      <g
         id="g1317"
         transform="translate(0,-0.13229002)">
        <rect
           ry="0"
           y="-2.3813226"
           x="20.372709"
           height="0.26458064"
           width="2.1166451"
           id="rect1288"
           style="opacity:1;fill:#eaeaea;fill-opacity:1;stroke:none;stroke-width:0.26458064;stroke-linecap:round;stroke-miterlimit:4;stroke-dasharray:none;stroke-opacity:1" />
        <g
           transform="translate(0.26274657,-1.3229029)"
           id="g1296">
          <rect
             ry="0"
             y="-16.168322"
             x="12.974413"
             height="0.26458064"
             width="1.0583227"
             id="rect1290"
             style="opacity:1;fill:#eaeaea;fill-opacity:1;stroke:none;stroke-width:0.18708678;stroke-linecap:round;stroke-miterlimit:4;stroke-dasharray:none;stroke-opacity:1"
             transform="rotate(45)" />
          <rect
             transform="matrix(-0.70710678,0.70710678,0.70710678,0.70710678,0,0)"
             style="opacity:1;fill:#eaeaea;fill-opacity:1;stroke:none;stroke-width:0.18708678;stroke-linecap:round;stroke-miterlimit:4;stroke-dasharray:none;stroke-opacity:1"
             id="rect1292"
             width="1.0583227"
             height="0.26458064"
             x="-16.960766"
             y="13.766859"
             ry="0" />
        </g>
        <g
           transform="translate(0,-0.04539536)"
           id="g1308">
          <rect
             transform="matrix(0.70710678,-0.70710678,-0.70710678,-0.70710678,0,0)"
             style="opacity:1;fill:#eaeaea;fill-opacity:1;stroke:none;stroke-width:0.18708678;stroke-linecap:round;stroke-miterlimit:4;stroke-dasharray:none;stroke-opacity:1"
             id="rect1298"
             width="1.0583227"
             height="0.26458064"
             x="15.373282"
             y="-14.141032"
             ry="0" />
          <rect
             ry="0"
             y="16.165728"
             x="-14.933476"
             height="0.26458064"
             width="1.0583227"
             id="rect1300"
             style="opacity:1;fill:#eaeaea;fill-opacity:1;stroke:none;stroke-width:0.18708678;stroke-linecap:round;stroke-miterlimit:4;stroke-dasharray:none;stroke-opacity:1"
             transform="rotate(-135)" />
        </g>
      </g>
    </g>
  </g>
  <g
     id="move">
    <rect
       style="color:#bebebe;fill:none;stroke-width:0.26458001;enable-background:new"
       id="rect45"
       height="4.2332802"
       width="4.2332802"
       y="15.344978"
       x="0.00077040627"
       transform="matrix(0,1,1,0,0,0)" />
    <g
       transform="translate(-7.0407071e-4,8.6279304e-4)"
       id="g1635">
      <g
         id="g1514"
         transform="translate(-1.5874845,4.7624516)">
        <rect
           transform="matrix(0,-1,-1,0,0,0)"
           style="opacity:1;fill:#eaeaea;fill-opacity:1;stroke:none;stroke-width:0.22913355;stroke-linecap:round;stroke-miterlimit:4;stroke-dasharray:none;stroke-opacity:1"
           id="rect1362"
           width="1.5874838"
           height="0.26458064"
           x="2.9104838"
           y="-19.171782"
           ry="0" />
        <rect
           transform="rotate(-135)"
           style="opacity:1;fill:#eaeaea;fill-opacity:1;stroke:none;stroke-width:0.20916942;stroke-linecap:round;stroke-miterlimit:4;stroke-dasharray:none;stroke-opacity:1"
           id="rect1366"
           width="1.3229039"
           height="0.26458064"
           x="-11.425522"
           y="16.573298"
           ry="0" />
        <rect
           ry="0"
           y="-10.367198"
           x="15.514975"
           height="0.26458064"
           width="1.3229039"
           id="rect1449"
           style="opacity:1;fill:#eaeaea;fill-opacity:1;stroke:none;stroke-width:0.20916942;stroke-linecap:round;stroke-miterlimit:4;stroke-dasharray:none;stroke-opacity:1"
           transform="matrix(0.70710678,-0.70710678,-0.70710678,-0.70710678,0,0)" />
      </g>
      <g
         id="g1503"
         transform="translate(-1.5874836,5.0270321)">
        <rect
           ry="0"
           y="-19.171782"
           x="-2.6459031"
           height="0.26458064"
           width="1.5874838"
           id="rect1461"
           style="opacity:1;fill:#eaeaea;fill-opacity:1;stroke:none;stroke-width:0.22913355;stroke-linecap:round;stroke-miterlimit:4;stroke-dasharray:none;stroke-opacity:1"
           transform="rotate(90)" />
        <rect
           ry="0"
           y="12.644338"
           x="-15.354481"
           height="0.26458064"
           width="1.3229039"
           id="rect1463"
           style="opacity:1;fill:#eaeaea;fill-opacity:1;stroke:none;stroke-width:0.20916942;stroke-linecap:round;stroke-miterlimit:4;stroke-dasharray:none;stroke-opacity:1"
           transform="matrix(-0.70710678,0.70710678,0.70710678,0.70710678,0,0)" />
        <rect
           transform="rotate(45)"
           style="opacity:1;fill:#eaeaea;fill-opacity:1;stroke:none;stroke-width:0.20916942;stroke-linecap:round;stroke-miterlimit:4;stroke-dasharray:none;stroke-opacity:1"
           id="rect1465"
           width="1.3229039"
           height="0.26458064"
           x="11.586015"
           y="-14.296158"
           ry="0" />
      </g>
      <g
         id="g1522"
         transform="rotate(90,15.874839,-1.0584203)">
        <rect
           ry="0"
           y="-19.171782"
           x="2.9104838"
           height="0.26458064"
           width="1.5874838"
           id="rect1516"
           style="opacity:1;fill:#eaeaea;fill-opacity:1;stroke:none;stroke-width:0.22913355;stroke-linecap:round;stroke-miterlimit:4;stroke-dasharray:none;stroke-opacity:1"
           transform="matrix(0,-1,-1,0,0,0)" />
        <rect
           ry="0"
           y="16.573298"
           x="-11.425522"
           height="0.26458064"
           width="1.3229039"
           id="rect1518"
           style="opacity:1;fill:#eaeaea;fill-opacity:1;stroke:none;stroke-width:0.20916942;stroke-linecap:round;stroke-miterlimit:4;stroke-dasharray:none;stroke-opacity:1"
           transform="rotate(-135)" />
        <rect
           transform="matrix(0.70710678,-0.70710678,-0.70710678,-0.70710678,0,0)"
           style="opacity:1;fill:#eaeaea;fill-opacity:1;stroke:none;stroke-width:0.20916942;stroke-linecap:round;stroke-miterlimit:4;stroke-dasharray:none;stroke-opacity:1"
           id="rect1520"
           width="1.3229039"
           height="0.26458064"
           x="15.514975"
           y="-10.367198"
           ry="0" />
      </g>
      <g
         id="g1530"
         transform="rotate(90,15.742549,-1.1907106)">
        <rect
           transform="rotate(90)"
           style="opacity:1;fill:#eaeaea;fill-opacity:1;stroke:none;stroke-width:0.22913355;stroke-linecap:round;stroke-miterlimit:4;stroke-dasharray:none;stroke-opacity:1"
           id="rect1524"
           width="1.5874838"
           height="0.26458064"
           x="-2.6459031"
           y="-19.171782"
           ry="0" />
        <rect
           transform="matrix(-0.70710678,0.70710678,0.70710678,0.70710678,0,0)"
           style="opacity:1;fill:#eaeaea;fill-opacity:1;stroke:none;stroke-width:0.20916942;stroke-linecap:round;stroke-miterlimit:4;stroke-dasharray:none;stroke-opacity:1"
           id="rect1526"
           width="1.3229039"
           height="0.26458064"
           x="-15.354481"
           y="12.644338"
           ry="0" />
        <rect
           ry="0"
           y="-14.296158"
           x="11.586015"
           height="0.26458064"
           width="1.3229039"
           id="rect1528"
           style="opacity:1;fill:#eaeaea;fill-opacity:1;stroke:none;stroke-width:0.20916942;stroke-linecap:round;stroke-miterlimit:4;stroke-dasharray:none;stroke-opacity:1"
           transform="rotate(45)" />
      </g>
    </g>
  </g>
  <g
     id="size-vertical">
    <rect
       style="color:#bebebe;fill:none;stroke-width:0.26458001"
       id="rect58"
       height="4.2332802"
       width="4.2332802"
       y="-4.2331901"
       x="-24.07583"
       transform="scale(-1)" />
    <g
       transform="translate(1.443874,3.4395502)"
       id="g1697">
      <g
         id="g1671"
         transform="translate(-0.25426546,-1.3332185)">
        <rect
           ry="0"
           y="-20.891556"
           x="-0.010218363"
           height="0.26458064"
           width="1.5874838"
           id="rect1657"
           style="opacity:1;fill:#eaeaea;fill-opacity:1;stroke:none;stroke-width:0.22913355;stroke-linecap:round;stroke-miterlimit:4;stroke-dasharray:none;stroke-opacity:1"
           transform="matrix(0,-1,-1,0,0,0)" />
        <rect
           ry="0"
           y="15.724113"
           x="-14.706835"
           height="0.26458064"
           width="1.3229039"
           id="rect1659"
           style="opacity:1;fill:#eaeaea;fill-opacity:1;stroke:none;stroke-width:0.20916942;stroke-linecap:round;stroke-miterlimit:4;stroke-dasharray:none;stroke-opacity:1"
           transform="rotate(-135)" />
        <rect
           transform="matrix(0.70710678,-0.70710678,-0.70710678,-0.70710678,0,0)"
           style="opacity:1;fill:#eaeaea;fill-opacity:1;stroke:none;stroke-width:0.20916942;stroke-linecap:round;stroke-miterlimit:4;stroke-dasharray:none;stroke-opacity:1"
           id="rect1661"
           width="1.3229039"
           height="0.26458064"
           x="14.665791"
           y="-13.648511"
           ry="0" />
      </g>
      <g
         id="g1687">
        <rect
           transform="rotate(90)"
           style="opacity:1;fill:#eaeaea;fill-opacity:1;stroke:none;stroke-width:0.22913355;stroke-linecap:round;stroke-miterlimit:4;stroke-dasharray:none;stroke-opacity:1"
           id="rect1673"
           width="1.5874838"
           height="0.26458064"
           x="-1.3229998"
           y="-20.637291"
           ry="0" />
        <rect
           transform="matrix(-0.70710678,0.70710678,0.70710678,0.70710678,0,0)"
           style="opacity:1;fill:#eaeaea;fill-opacity:1;stroke:none;stroke-width:0.20916942;stroke-linecap:round;stroke-miterlimit:4;stroke-dasharray:none;stroke-opacity:1"
           id="rect1675"
           width="1.3229039"
           height="0.26458064"
           x="-15.455319"
           y="14.616043"
           ry="0" />
        <rect
           ry="0"
           y="-14.396995"
           x="13.55772"
           height="0.26458064"
           width="1.3229039"
           id="rect1677"
           style="opacity:1;fill:#eaeaea;fill-opacity:1;stroke:none;stroke-width:0.20916942;stroke-linecap:round;stroke-miterlimit:4;stroke-dasharray:none;stroke-opacity:1"
           transform="rotate(45)" />
      </g>
    </g>
  </g>
  <g
     id="size-horizontal">
    <rect
       style="color:#bebebe;fill:none;stroke-width:0.26458001"
       id="rect63"
       height="4.2332802"
       width="4.2332802"
       y="-4.2331877"
       x="-28.310125"
       transform="scale(-1)" />
    <g
       transform="translate(-0.93634669,4.2332884)"
       id="g1765">
      <rect
         ry="0"
         y="1.9947679"
         x="27.129833"
         height="0.26458064"
         width="1.5874838"
         id="rect1715"
         style="opacity:1;fill:#eaeaea;fill-opacity:1;stroke:none;stroke-width:0.22913355;stroke-linecap:round;stroke-miterlimit:4;stroke-dasharray:none;stroke-opacity:1"
         transform="scale(1,-1)" />
      <rect
         ry="0"
         y="18.731953"
         x="20.667152"
         height="0.26458064"
         width="1.3229039"
         id="rect1717"
         style="opacity:1;fill:#eaeaea;fill-opacity:1;stroke:none;stroke-width:0.20916942;stroke-linecap:round;stroke-miterlimit:4;stroke-dasharray:none;stroke-opacity:1"
         transform="rotate(-45)" />
      <rect
         transform="matrix(0.70710678,0.70710678,0.70710678,-0.70710678,0,0)"
         style="opacity:1;fill:#eaeaea;fill-opacity:1;stroke:none;stroke-width:0.20916942;stroke-linecap:round;stroke-miterlimit:4;stroke-dasharray:none;stroke-opacity:1"
         id="rect1719"
         width="1.3229039"
         height="0.26458064"
         x="17.67363"
         y="21.725477"
         ry="0" />
      <rect
         transform="scale(-1)"
         style="opacity:1;fill:#eaeaea;fill-opacity:1;stroke:none;stroke-width:0.22913355;stroke-linecap:round;stroke-miterlimit:4;stroke-dasharray:none;stroke-opacity:1"
         id="rect1723"
         width="1.5874838"
         height="0.26458064"
         x="-27.129833"
         y="1.9947679"
         ry="0" />
      <rect
         transform="matrix(-0.70710678,-0.70710678,-0.70710678,0.70710678,0,0)"
         style="opacity:1;fill:#eaeaea;fill-opacity:1;stroke:none;stroke-width:0.20916942;stroke-linecap:round;stroke-miterlimit:4;stroke-dasharray:none;stroke-opacity:1"
         id="rect1725"
         width="1.3229039"
         height="0.26458064"
         x="-17.700224"
         y="-19.635426"
         ry="0" />
      <rect
         ry="0"
         y="-16.641899"
         x="-20.693747"
         height="0.26458064"
         width="1.3229039"
         id="rect1727"
         style="opacity:1;fill:#eaeaea;fill-opacity:1;stroke:none;stroke-width:0.20916942;stroke-linecap:round;stroke-miterlimit:4;stroke-dasharray:none;stroke-opacity:1"
         transform="rotate(135)" />
    </g>
  </g>
  <g
     id="collapse">
    <rect
       style="fill:none"
       id="rect12"
       height="4.2333002"
       width="4.2333002"
       y="4.7699995"
       x="23.81217" />
    <g
       transform="translate(-2.3813087,-3.1749677)"
       id="g1807">
      <g
         id="g1784"
         transform="translate(-0.94872976,0.74834779)"
         inkscape:transform-center-x="-3.3090972"
         inkscape:transform-center-y="3.4019529">
        <rect
           transform="rotate(-135)"
           style="opacity:1;fill:#eaeaea;fill-opacity:1;stroke:none;stroke-width:0.20916942;stroke-linecap:round;stroke-miterlimit:4;stroke-dasharray:none;stroke-opacity:1"
           id="rect1534"
           width="1.3229039"
           height="0.26458064"
           x="-28.779196"
           y="13.657403"
           ry="0" />
        <rect
           ry="0"
           y="-27.720871"
           x="12.599079"
           height="0.26458064"
           width="1.3229039"
           id="rect1536"
           style="opacity:1;fill:#eaeaea;fill-opacity:1;stroke:none;stroke-width:0.20916942;stroke-linecap:round;stroke-miterlimit:4;stroke-dasharray:none;stroke-opacity:1"
           transform="matrix(0.70710678,-0.70710678,-0.70710678,-0.70710678,0,0)" />
      </g>
      <rect
         style="opacity:1;fill:#eaeaea;fill-opacity:1;stroke:none;stroke-width:0.30551142;stroke-linecap:round;stroke-miterlimit:4;stroke-dasharray:none;stroke-opacity:1"
         id="rect1786"
         width="3.174968"
         height="0.26458064"
         x="26.722645"
         y="9.7893877"
         ry="0"
         inkscape:transform-center-x="-3.609924"
         inkscape:transform-center-y="2.4438216" />
      <g
         id="g1798"
         transform="translate(-1.3229025,0.52916129)"
         inkscape:transform-center-x="-3.3090972"
         inkscape:transform-center-y="1.4856886">
        <rect
           ry="0"
           y="27.050018"
           x="-15.915741"
           height="0.26458064"
           width="1.3229039"
           id="rect1788"
           style="opacity:1;fill:#eaeaea;fill-opacity:1;stroke:none;stroke-width:0.20916942;stroke-linecap:round;stroke-miterlimit:4;stroke-dasharray:none;stroke-opacity:1"
           transform="matrix(-0.70710678,0.70710678,0.70710678,0.70710678,0,0)" />
        <rect
           transform="rotate(45)"
           style="opacity:1;fill:#eaeaea;fill-opacity:1;stroke:none;stroke-width:0.20916942;stroke-linecap:round;stroke-miterlimit:4;stroke-dasharray:none;stroke-opacity:1"
           id="rect1790"
           width="1.3229039"
           height="0.26458064"
           x="25.991693"
           y="-14.857416"
           ry="0" />
      </g>
    </g>
  </g>
  <g
     id="restore">
    <rect
       style="fill:none"
       id="rect24"
       height="4.2333002"
       width="4.2333002"
       y="4.7699995"
       x="28.575169" />
    <g
       transform="translate(0.26504409,-4.2332869)"
       id="g1865">
      <g
         id="g1856">
        <rect
           ry="0"
           y="30.088802"
           x="-13.999479"
           height="0.26458064"
           width="1.3229039"
           id="rect1809"
           style="opacity:1;fill:#eaeaea;fill-opacity:1;stroke:none;stroke-width:0.20916942;stroke-linecap:round;stroke-miterlimit:4;stroke-dasharray:none;stroke-opacity:1"
           transform="matrix(-0.70710678,0.70710678,0.70710678,0.70710678,0,0)" />
        <rect
           transform="rotate(45)"
           style="opacity:1;fill:#eaeaea;fill-opacity:1;stroke:none;stroke-width:0.20916942;stroke-linecap:round;stroke-miterlimit:4;stroke-dasharray:none;stroke-opacity:1"
           id="rect1811"
           width="1.3229039"
           height="0.26458064"
           x="29.030479"
           y="-12.941154"
           ry="0" />
      </g>
      <rect
         inkscape:transform-center-y="2.4438216"
         inkscape:transform-center-x="-3.609924"
         ry="0"
         y="10.84771"
         x="28.839291"
         height="0.26458064"
         width="3.174968"
         id="rect1815"
         style="opacity:1;fill:#eaeaea;fill-opacity:1;stroke:none;stroke-width:0.30551142;stroke-linecap:round;stroke-miterlimit:4;stroke-dasharray:none;stroke-opacity:1" />
      <g
         id="g1850">
        <rect
           transform="rotate(-135)"
           style="opacity:1;fill:#eaeaea;fill-opacity:1;stroke:none;stroke-width:0.20916942;stroke-linecap:round;stroke-miterlimit:4;stroke-dasharray:none;stroke-opacity:1"
           id="rect1817"
           width="1.3229039"
           height="0.26458064"
           x="-29.52754"
           y="14.56074"
           ry="0" />
        <rect
           ry="0"
           y="-28.469217"
           x="13.502415"
           height="0.26458064"
           width="1.3229039"
           id="rect1819"
           style="opacity:1;fill:#eaeaea;fill-opacity:1;stroke:none;stroke-width:0.20916942;stroke-linecap:round;stroke-miterlimit:4;stroke-dasharray:none;stroke-opacity:1"
           transform="matrix(0.70710678,-0.70710678,-0.70710678,-0.70710678,0,0)" />
      </g>
    </g>
  </g>
  <g
     id="rotate">
    <rect
       style="color:#bebebe;fill:none;stroke-width:0.26458001"
       id="rect38"
       height="4.2332802"
       width="4.2332802"
       y="-4.2404265"
       x="-14.28895"
       transform="scale(-1)" />
    <g
       id="g1950">
      <path
         id="path1343"
         style="opacity:1;fill:none;fill-opacity:1;fill-rule:evenodd;stroke:#eaeaea;stroke-width:0.264591;stroke-linecap:round;stroke-linejoin:miter;stroke-miterlimit:4;stroke-dasharray:none;stroke-dashoffset:3;stroke-opacity:1;paint-order:stroke fill markers"
         transform="matrix(0.70711203,-0.70710153,0.70711203,0.70710153,0,0)"
         sodipodi:type="arc"
         sodipodi:cx="7.110908"
         sodipodi:cy="10.102565"
         sodipodi:rx="1.7205865"
         sodipodi:ry="1.7205865"
         sodipodi:start="4.3538435"
         sodipodi:end="3.5967421"
         sodipodi:open="true"
         d="M 6.5071326,8.4913934 A 1.7205865,1.7205865 0 0 1 8.5797066,9.2064348 1.7205865,1.7205865 0 0 1 8.2673843,11.376527 1.7205865,1.7205865 0 0 1 6.0772851,11.47808 1.7205865,1.7205865 0 0 1 5.5654852,9.3462009"
         sodipodi:arc-type="arc" />
      <g
         id="g1944">
        <rect
           transform="matrix(0,1,1,0,0,0)"
           ry="0.13229032"
           y="10.318645"
           x="0.52906454"
           height="0.26458064"
           width="1.0583225"
           id="rect1036"
           style="opacity:1;fill:#eaeaea;fill-opacity:1;fill-rule:evenodd;stroke:none;stroke-width:0.26458064;stroke-linecap:round;stroke-linejoin:miter;stroke-miterlimit:4;stroke-dasharray:none;stroke-dashoffset:3;stroke-opacity:1;paint-order:stroke fill markers" />
        <rect
           style="opacity:1;fill:#eaeaea;fill-opacity:1;fill-rule:evenodd;stroke:none;stroke-width:0.26458064;stroke-linecap:round;stroke-linejoin:miter;stroke-miterlimit:4;stroke-dasharray:none;stroke-dashoffset:3;stroke-opacity:1;paint-order:stroke fill markers"
           id="rect1363"
           width="1.0583225"
           height="0.26458064"
           x="-11.376967"
           y="1.3228065"
           ry="0.13229032"
           transform="scale(-1,1)" />
      </g>
    </g>
  </g>
  <g
     id="g897"
     transform="matrix(0.26458065,0,0,0.26458065,17.726825,-11.906163)" />
  <g
     id="configure">
    <rect
       y="-0.001111744"
       x="4.4978714"
       height="4.2332902"
       width="4.2332902"
       id="rect4156"
       style="fill:none;fill-opacity:1;stroke:none;stroke-width:0.999991" />
    <g
       id="g884"
       transform="matrix(0.00413209,0,0,0.00413209,3.0852227,-9.6769561e-5)">
      <path
         style="color:#000000;font-style:normal;font-variant:normal;font-weight:normal;font-stretch:normal;font-size:medium;line-height:normal;font-family:sans-serif;font-variant-ligatures:normal;font-variant-position:normal;font-variant-caps:normal;font-variant-numeric:normal;font-variant-alternates:normal;font-variant-east-asian:normal;font-feature-settings:normal;font-variation-settings:normal;text-indent:0;text-align:start;text-decoration:none;text-decoration-line:none;text-decoration-style:solid;text-decoration-color:#000000;letter-spacing:normal;word-spacing:normal;text-transform:none;writing-mode:lr-tb;direction:ltr;text-orientation:mixed;dominant-baseline:auto;baseline-shift:baseline;text-anchor:start;white-space:normal;shape-padding:0;shape-margin:0;inline-size:0;clip-rule:nonzero;display:inline;overflow:visible;visibility:visible;opacity:0.5;isolation:auto;mix-blend-mode:normal;color-interpolation:sRGB;color-interpolation-filters:linearRGB;solid-color:#000000;solid-opacity:1;vector-effect:none;fill:#46dcdc;fill-opacity:1;fill-rule:nonzero;stroke:none;stroke-width:1;stroke-linecap:butt;stroke-linejoin:miter;stroke-miterlimit:4;stroke-dasharray:none;stroke-dashoffset:0;stroke-opacity:1;color-rendering:auto;image-rendering:auto;shape-rendering:auto;text-rendering:auto;enable-background:accumulate;stop-color:#000000;stop-opacity:1"
         d="m 1334.818,367.32442 c -43.8137,-9.76421 -80.367,-37.05394 -102.7746,-76.86188 -22.9083,-40.55904 -27.6652,-88.37865 -13.1441,-131.31615 6.1339,-17.90106 -1.2518,-37.67985 -17.5255,-47.31888 L 1021.6121,5.547801 c -16.6492,-9.764213 -37.67984,-6.384293 -50.44842,8.136844 -30.54447,34.800658 -72.23015,53.953538 -117.29575,53.953538 -45.94187,0 -87.37719,-19.027698 -116.79501,-53.577991 C 724.42952,-0.71131 703.02336,-4.341595 686.24894,5.547801 L 506.48727,111.70233 c -16.27369,9.63903 -23.65944,29.41782 -17.52551,47.31887 14.52114,42.93751 9.76421,90.75712 -13.14413,131.31615 -22.53281,39.68277 -58.96083,66.97249 -102.77461,76.86189 -18.15142,4.13101 -31.17037,20.27952 -31.17037,39.05685 v 213.68605 c 0,18.65216 13.01895,34.92584 31.17037,39.05686 43.6886,9.76421 80.2418,37.05394 102.77461,76.86188 21.90688,39.55758 27.03935,86.6261 14.0204,129.18806 -5.38283,17.65069 2.00292,36.67839 17.90106,46.06705 l 182.01495,107.28121 c 16.39887,9.7642 37.42949,6.5094 50.07289,-7.7613 29.04228,-32.29705 70.72796,-50.94921 114.29137,-50.94921 43.56341,0 85.12391,18.52697 114.29137,50.94921 7.7613,8.7627 18.77733,13.2693 29.79337,13.2693 7.01016,0 14.02036,-1.7526 20.27956,-5.7584 l 182.0149,-107.28117 c 15.8981,-9.26349 23.2839,-28.29118 18.0262,-45.94188 -13.1441,-43.68859 -8.1368,-89.63047 13.8953,-129.43841 22.5328,-39.68277 58.9608,-66.97249 102.7746,-76.86189 18.1514,-4.13101 31.1703,-20.27952 31.1703,-39.05685 V 406.38128 c -0.2503,-18.77734 -13.1441,-34.92584 -31.5459,-39.05686 z m -31.5459,225.82873 c -21.4062,8.13684 -41.6857,19.15288 -60.3378,32.92292 -27.9157,20.78025 -50.824,46.94334 -68.2243,77.73816 0,0.12518 -0.1252,0.25037 -0.1252,0.37555 -16.7744,30.16891 -27.1646,62.84147 -30.92,97.01622 -2.6288,23.40908 -2.0029,46.81815 1.8777,69.85168 l -135.8227,80.24181 C 966.28157,915.12182 911.20139,894.8423 853.99312,894.8423 c -57.20828,0 -112.41364,20.27952 -155.97705,56.58237 L 562.31854,871.30805 c 9.38867,-56.58237 -0.75109,-115.91874 -29.04227,-166.74272 0,-0.12519 -0.12519,-0.25037 -0.12519,-0.25037 -17.40033,-30.79483 -40.30867,-56.95791 -68.22431,-77.73816 -18.65215,-13.89522 -38.80649,-24.91126 -60.33783,-32.92292 V 433.42063 c 21.53134,-8.13684 41.81086,-19.27806 60.33783,-32.92292 27.91564,-20.78025 50.82398,-46.94333 68.22431,-77.73816 29.79337,-52.70171 39.68277,-113.28991 28.79191,-170.99891 L 694.01024,73.646929 c 17.40033,15.147049 36.67839,27.790451 57.95937,37.429481 31.92146,14.64632 66.22139,22.03207 101.89832,22.03207 59.46156,0 115.04247,-21.03061 159.60737,-59.711915 l 132.3176,78.238885 c -10.7657,57.70901 -0.8763,118.54757 28.7919,170.99892 17.4003,30.66964 40.3087,56.83273 68.2243,77.61298 18.6521,13.89522 38.8065,24.91126 60.3378,32.92292 v 159.98288 z"
         id="path878" />
      <path
         style="color:#000000;font-style:normal;font-variant:normal;font-weight:normal;font-stretch:normal;font-size:medium;line-height:normal;font-family:sans-serif;font-variant-ligatures:normal;font-variant-position:normal;font-variant-caps:normal;font-variant-numeric:normal;font-variant-alternates:normal;font-variant-east-asian:normal;font-feature-settings:normal;font-variation-settings:normal;text-indent:0;text-align:start;text-decoration:none;text-decoration-line:none;text-decoration-style:solid;text-decoration-color:#000000;letter-spacing:normal;word-spacing:normal;text-transform:none;writing-mode:lr-tb;direction:ltr;text-orientation:mixed;dominant-baseline:auto;baseline-shift:baseline;text-anchor:start;white-space:normal;shape-padding:0;shape-margin:0;inline-size:0;clip-rule:nonzero;display:inline;overflow:visible;visibility:visible;opacity:0.5;isolation:auto;mix-blend-mode:normal;color-interpolation:sRGB;color-interpolation-filters:linearRGB;solid-color:#000000;solid-opacity:1;vector-effect:none;fill:#46dcdc;fill-opacity:1;fill-rule:nonzero;stroke:none;stroke-width:1;stroke-linecap:butt;stroke-linejoin:miter;stroke-miterlimit:4;stroke-dasharray:none;stroke-dashoffset:0;stroke-opacity:1;color-rendering:auto;image-rendering:auto;shape-rendering:auto;text-rendering:auto;enable-background:accumulate;stop-color:#000000;stop-opacity:1"
         d="m 1098.5992,367.4496 c -22.658,-40.05831 -30.2941,-86.50091 -22.0321,-130.43987 L 975.54505,177.29781 c -33.92438,29.543 -76.36115,45.56633 -121.8023,45.56633 -27.28972,0 -53.45281,-5.6332 -77.73816,-16.77442 -16.1485,-7.38575 -30.92001,-17.02478 -44.18932,-28.54155 l -100.77169,59.58674 c 8.38721,44.06414 0.75109,90.38157 -22.03207,130.56506 -13.14413,23.28389 -30.66964,43.18786 -51.95062,59.08601 -14.14559,10.5153 -29.54301,18.90251 -46.06706,25.16162 v 122.30303 c 16.39887,6.13393 31.79628,14.52114 46.06706,25.16163 21.28098,15.89814 38.80649,35.80212 52.0758,59.33637 0,0.12519 0.12518,0.12519 0.12518,0.25037 21.53135,38.80649 29.29264,84.12245 22.15726,127.18513 l 103.65088,61.08893 c 33.29847,-27.66527 75.35969,-43.18787 119.04829,-43.18787 43.68859,0 85.74982,15.5226 118.79793,43.06269 l 103.65087,-61.21411 c -2.8792,-17.52551 -3.3799,-35.42657 -1.377,-53.20244 2.8792,-26.16309 10.7657,-51.07435 23.5343,-74.10788 0,-0.12518 0.1251,-0.12518 0.1251,-0.25036 13.2694,-23.53426 30.7949,-43.43823 52.0758,-59.33638 14.2708,-10.5153 29.6682,-19.02769 46.0671,-25.16162 V 451.69724 c -16.3989,-6.13393 -31.7963,-14.52114 -46.0671,-25.16163 -21.5313,-15.77296 -39.0568,-35.67693 -52.3261,-59.08601 z"
         id="path880" />
      <path
         style="color:#000000;font-style:normal;font-variant:normal;font-weight:normal;font-stretch:normal;font-size:medium;line-height:normal;font-family:sans-serif;font-variant-ligatures:normal;font-variant-position:normal;font-variant-caps:normal;font-variant-numeric:normal;font-variant-alternates:normal;font-variant-east-asian:normal;font-feature-settings:normal;font-variation-settings:normal;text-indent:0;text-align:start;text-decoration:none;text-decoration-line:none;text-decoration-style:solid;text-decoration-color:#000000;letter-spacing:normal;word-spacing:normal;text-transform:none;writing-mode:lr-tb;direction:ltr;text-orientation:mixed;dominant-baseline:auto;baseline-shift:baseline;text-anchor:start;white-space:normal;shape-padding:0;shape-margin:0;inline-size:0;clip-rule:nonzero;display:inline;overflow:visible;visibility:visible;opacity:1;isolation:auto;mix-blend-mode:normal;color-interpolation:sRGB;color-interpolation-filters:linearRGB;solid-color:#000000;solid-opacity:1;vector-effect:none;fill:#46dcdc;fill-opacity:1;fill-rule:nonzero;stroke:none;stroke-width:1;stroke-linecap:butt;stroke-linejoin:miter;stroke-miterlimit:4;stroke-dasharray:none;stroke-dashoffset:0;stroke-opacity:1;color-rendering:auto;image-rendering:auto;shape-rendering:auto;text-rendering:auto;enable-background:accumulate;stop-color:#000000;stop-opacity:1"
         d="m 853.86793,362.5675 c -81.36844,0 -147.58984,67.72358 -147.58984,150.96976 0,82.87063 66.2214,150.21866 147.58984,150.21866 81.36845,0 147.58987,-67.72358 147.58987,-150.96976 0,-82.74545 -66.22142,-150.21866 -147.58987,-150.21866 z"
         id="path882" />
    </g>
  </g>
</svg>
